<?xml version="1.0" encoding="utf-8"?>
<!-- Generator: Adobe Illustrator 22.1.0, SVG Export Plug-In . SVG Version: 6.00 Build 0)  -->
<svg version="1.1" id="Layer_1" xmlns="http://www.w3.org/2000/svg" xmlns:xlink="http://www.w3.org/1999/xlink" x="0px" y="0px"
	 viewBox="0 0 293.1 53.4" xml:space="preserve" preserveAspectRatio="xMinYMid meet">
<style type="text/css">
	.st0{clip-path:url(#SVGID_2_);fill:#B0B7BC;}
	.st1{fill:#B5121B;}
	.st2{fill:#FFFFFF;}
	.st3{fill:#6A737B;}
</style>
<g>
	<g>
		<defs>
			<rect id="SVGID_1_" x="-232.9" width="526.3" height="53.6"/>
		</defs>
		<clipPath id="SVGID_2_">
			<use xlink:href="#SVGID_1_"  style="overflow:visible;"/>
		</clipPath>
		<path class="st0" d="M293.3,20.7v3.6c0,6.7-3.3,21.4-19.4,29.3c-16.1-7.9-19.4-22.6-19.4-29.3v-3.6H293.3z"/>
	</g>
	<path class="st1" d="M273.9,4.6c0,0,12.6-0.2,19.4,2.5v13.7h-38.7V7.1C261.3,4.4,273.9,4.6,273.9,4.6"/>
	<path class="st2" d="M258.8,8.6C258.8,8.6,258.7,8.6,258.8,8.6c-0.1,0,0-0.1,0-0.1c0.1-0.1,0.2-0.1,0.3-0.1c0.1,0,0.3,0,0.4,0.2
		c0,0,0,0-0.1,0c-0.1,0-0.1,0.1-0.1,0.1c-0.1-0.1-0.2-0.1-0.4-0.1C258.9,8.6,258.8,8.6,258.8,8.6 M259.2,9.8c-0.1,0-0.2,0-0.3,0
		c-0.2,0-0.3,0.1-0.4,0.2c-0.1,0.1-0.1,0.2-0.1,0.2c0,0,0.1,0,0.1-0.1c0.1-0.1,0.3-0.1,0.4-0.1c0.1,0,0.1,0,0.2,0
		C259.1,9.9,259.2,9.8,259.2,9.8C259.2,9.8,259.2,9.8,259.2,9.8 M259.3,9.1C259.3,9.2,259.3,9.2,259.3,9.1L259.3,9.1L259.3,9.1
		L259.3,9.1L259.3,9.1c0,0.1,0,0.1,0,0.1c0,0.1,0,0.1,0.1,0.2c0.1,0.1,0.3,0.2,0.5,0.3c0.1-0.2,0.2-0.3,0.3-0.4l-0.3-0.5l0,0l0,0
		l0,0l0,0c0,0-0.1,0-0.1,0c0,0-0.1,0-0.1,0.1C259.5,8.9,259.4,9.1,259.3,9.1 M260.3,17.9c-0.1,0.1-0.1,0.2-0.1,0.3c0,0,0,0,0,0
		c0,0,0,0,0-0.1c0.1-0.2,0.3-0.3,0.4-0.3c0-0.1,0-0.2,0-0.3C260.4,17.7,260.3,17.8,260.3,17.9 M260.8,11.8c0.2,0.2,0.4,0.3,0.5,0.3
		c0.1,0,0.1,0,0.1-0.1c0,0,0.1-0.1,0.1-0.1c0,0,0-0.1,0-0.2c0-0.1,0-0.3-0.1-0.3v0c0-0.1-0.6-1.3-0.7-1.8c0-0.1,0-0.2,0-0.2l0,0
		c0,0,0,0,0,0c0,0-0.1,0-0.2,0c-0.3,0.2-0.5,0.5-0.5,0.8C260,10.8,260.5,11.5,260.8,11.8 M259.8,10.1C259.8,10,259.8,10,259.8,10.1
		c0-0.1-0.2-0.2-0.2-0.2c-0.1,0-0.2,0-0.2,0.1c-0.1,0.1-0.2,0.2-0.2,0.4c0,0.1,0,0.1,0,0.1c0,0,0.1,0.1,0.2,0.1
		c0.2,0,0.3,0.1,0.5,0.1c-0.1-0.2-0.1-0.4-0.1-0.6C259.8,10.1,259.8,10.1,259.8,10.1 M260.7,8C260.7,8,260.7,8,260.7,8
		c0.1,0,0.2,0,0.3,0.1c0-0.2-0.1-0.4-0.2-0.5c-0.1-0.1-0.3-0.1-0.4-0.1c0,0,0,0-0.1,0c0,0,0,0,0.1,0.1C260.6,7.7,260.7,7.9,260.7,8
		 M260.2,8.7c0,0.1,0,0.2,0.1,0.2c0,0,0.1,0.2,0.1,0.3c0,0,0,0,0,0c0,0,0,0,0,0c0.1,0,0.2-0.1,0.2-0.1c0,0,0.1,0,0.1,0
		c0-0.1,0.1-0.2,0.1-0.2c0-0.1,0.1-0.2,0.1-0.3c0,0,0-0.1,0-0.1c0-0.1,0-0.1,0-0.2c0,0-0.1-0.1-0.1-0.1c0,0-0.1,0-0.1,0
		c-0.1,0-0.3,0.1-0.4,0.2C260.2,8.5,260.2,8.6,260.2,8.7 M262.5,8.9c0.1-0.2,0.2-0.3,0.2-0.4c0-0.1-0.1-0.3-0.1-0.3
		c0,0-0.1-0.1-0.1-0.1c0,0,0,0.1,0,0.1c0,0.1,0,0.1,0,0.2c0,0.2-0.1,0.3-0.1,0.4C262.4,8.8,262.4,8.8,262.5,8.9 M266.8,8.1
		L266.8,8.1c0-0.1,0.1-0.2,0.1-0.2c0.1-0.1,0.1-0.2,0.1-0.3c0-0.1-0.1-0.1-0.1-0.2c0,0,0-0.1,0.1-0.1c0,0,0.1-0.1,0.1-0.1
		c0.2,0,0.7-0.2,0.7-0.2c0,0,0.1-0.1,0.1-0.1c0.1-0.1,0.2-0.1,0.4-0.2c0.5-0.1,2-0.2,2.2-0.2c0,0,0.1,0,0.2,0.1
		c0.1,0.1,0.2,0.2,0.3,0.3c0,0,0.1,0.1,0.1,0.1c0,0,0,0,0,0l0,0l0,0c0,0,0,0,0.1,0c0,0,0.1,0,0.1,0c0.1,0,0.1,0,0.2,0.1
		c0.1,0,0.1,0.1,0.1,0.2c0,0.1,0,0.1,0,0.2c0,0.4-0.2,0.7-0.4,0.9l0,0l0,0c0.6,0.8,0.7,1.6,0.7,1.8c-0.1-0.1-0.2-0.3-0.2-0.3
		c0,0,0,0,0-0.1c0,0-0.1-0.1-0.1-0.1c0,0,0,0,0,0c0,0-0.1,0-0.1,0c0,0,0,0.1,0,0.1c0,0,0,0.1,0,0.1c0.2,0.7,0.3,1.5,0.3,1.9
		c0,0,0,0,0,0c-0.1-0.2-0.2-0.4-0.2-0.4c0-0.1-0.1-0.1-0.1-0.1c0,0-0.1,0-0.1,0c0,0,0,0,0,0.1c0,0,0,0,0,0.1
		c0.1,0.3,0.2,0.7,0.2,0.9c0,0.4-0.1,0.7-0.2,1c0,0.1-0.1,0.2-0.1,0.3c0,0,0,0,0,0c0,0,0-0.1-0.1-0.1c-0.1-0.1-0.1-0.2-0.2-0.3
		c0,0,0-0.1-0.1-0.1c0,0,0,0-0.1,0c0,0-0.1,0-0.1,0c0,0,0,0.1,0,0.1c0,0,0,0,0,0c0,0.1,0,0.1,0,0.2c0,0.7-0.3,1.1-0.5,1.4
		c-0.1,0.1-0.3,0.3-0.4,0.3c0,0-0.1,0.1-0.1,0.1c0-0.2,0-0.7,0-0.9c0,0,0-0.1,0-0.1c0,0,0-0.1-0.1-0.1c0,0,0,0-0.1,0c0,0,0,0,0,0.1
		c-0.2,0.4-0.4,0.7-0.5,0.8c-0.2,0.1-0.3,0.2-0.4,0.2c0,0-0.1,0-0.1,0c0,0,0.1-0.1,0.1-0.2c0.1-0.1,0.1-0.3,0.1-0.4
		c0-0.1,0-0.2-0.1-0.3c-0.1-0.1-0.2-0.1-0.4-0.1c-0.1,0-0.1,0-0.2,0c-0.4,0.1-1.1,0.3-1.6,0.6c-0.4,0.2-0.8,0.4-0.9,0.5
		c-0.1-0.2-0.1-0.4-0.1-0.6c0-0.3,0.1-0.5,0.2-0.6c0-0.1,0.1-0.1,0.1-0.2c0,0,0,0,0,0l0,0c0,0,0,0,0,0c0,0,0-0.1,0-0.1
		c0,0,0-0.1,0-0.1c0,0-0.1,0-0.1,0c-0.2,0-0.4,0.1-0.5,0.2c-0.1,0.1-0.2,0.1-0.2,0.2c0-0.7,0.3-1.2,0.6-1.5c0.3-0.3,0.6-0.4,0.7-0.5
		c0.1,0,0.1,0,0.1-0.1c0,0,0-0.1,0-0.1c0,0,0,0,0,0c0,0,0,0,0,0c0,0-0.1,0-0.1,0c0,0-0.2,0-0.3-0.1c-0.1,0-0.2,0-0.2-0.1
		c0,0,0,0-0.1,0c0.5-0.6,1.1-0.7,1.5-0.7c0.1,0,0.1,0,0.2,0c0,0,0,0,0.1,0c0,0,0,0,0,0c0,0,0.1,0,0.1,0c0.1,0,0.1,0,0.1,0
		c0,0,0-0.1,0-0.1c0,0,0-0.1,0-0.1c0,0,0,0,0,0c0,0,0,0,0,0c0,0-0.1-0.1-0.3-0.2c-0.1,0-0.1-0.1-0.1-0.1s0,0,0,0l0,0
		c0,0,0.1,0,0.2,0c0.1,0,0.2,0,0.3,0c0.2,0.1,0.3,0.1,0.5,0.1c0.2,0,0.4-0.1,0.5-0.2c0.1-0.1,0.2-0.3,0.2-0.3c0-0.1,0.1-0.1,0.1-0.2
		c0-0.1-0.1-0.2-0.2-0.2c-0.1,0-0.1,0-0.2,0c-0.1,0-0.3,0-0.4,0.1c-0.1,0.1-0.1,0.1-0.2,0.1c0,0,0,0-0.1,0l0,0c0,0-0.2-0.2-0.2-0.2
		c-0.1,0-0.1,0-0.2-0.1c0,0,0,0,0,0l0,0c0,0,0,0,0,0c0.1-0.1,0.2-0.1,0.3-0.1c0.1,0,0.3,0,0.5,0c0,0,0.1,0,0.1,0
		c0.2,0,0.3-0.1,0.4-0.2c0.1-0.1,0.1-0.2,0.1-0.3c0-0.1,0-0.2,0-0.2c0,0-0.1-0.4-0.4-0.8C268.3,8,268.2,8,268.1,8
		c-0.1,0-0.3,0.1-0.4,0.2c-0.1,0.1-0.2,0.2-0.2,0.2c-0.1,0.1-0.2,0.1-0.3,0.1c-0.1,0-0.2,0-0.3-0.1C266.9,8.2,266.9,8.1,266.8,8.1
		 M268.3,7.3c0.1,0,0.1,0.1,0.2,0.1c0,0,0,0,0,0l0,0c0,0,0.1-0.1,0.2-0.1c0,0,0.2-0.1,0.2-0.2c0-0.1-0.4,0-0.5,0
		c-0.1,0-0.1,0-0.1,0.1c0,0,0,0,0,0l0,0C268.1,7.3,268.3,7.3,268.3,7.3 M260.9,9.4c0.1,0.4,0.5,1.2,0.6,1.6c0.1,0.1,0.1,0.2,0.1,0.2
		c0,0,0.1,0.2,0.1,0.4c0,0.1,0,0.2-0.1,0.3c-0.1,0.1-0.2,0.2-0.2,0.2l0,0l0,0h0l0,0l0,0c0,0,0,0,0,0c0,0,0,0.1,0,0.2
		c0,0.1,0,0.1,0.1,0.2c0,0,0.1,0.1,0.1,0.3c0.1,0.1,0.2,0.3,0.2,0.4c0,0,0,0.1,0.1,0.1c0,0,0,0,0,0l0,0c0,0,0-0.1,0-0.1c0,0,0,0,0,0
		v0c0-0.1,0-0.2,0-0.3c0-0.1,0.1-0.1,0.1-0.1c0,0,0.1,0,0.1,0.1c0,0.1,0,0.2,0.1,0.3v0c0,0,0,0,0,0c0,0,0,0.1,0,0.1
		c0,0.1,0.1,0.2,0.2,0.3c0.1,0.2,0.4,0.5,0.6,0.6c0,0,0-0.1,0-0.1c0-0.1,0-0.2,0-0.3c0,0,0,0,0,0c0,0,0,0,0-0.1c0,0,0,0,0.1,0h0h0
		l0,0c0,0,0,0,0.1,0c0,0,0,0,0,0c0,0,0,0,0,0h0l0,0c0,0,0,0,0,0.1c0,0,0.1,0.1,0.1,0.2c0.1,0.1,0.2,0.3,0.4,0.5
		c0.3,0.3,0.7,0.7,1.1,0.8c0-0.1,0-0.2,0-0.3c0-0.2,0-0.4,0.1-0.6c0,0-0.1,0.1-0.1,0.1l-0.5,0.4l0-0.7c0-0.7,0.2-1.2,0.6-1.7
		c0.1-0.1,0.3-0.2,0.4-0.3c-0.1,0-0.1,0-0.2,0c0,0,0,0-0.1,0l-0.1,0c-0.9-0.1-2.2-0.5-3.4-1.7c-0.1-0.1-0.3-0.4-0.3-0.6
		c0-0.1,0-0.3,0.1-0.4c0.1-0.1,0.3-0.2,0.5-0.3l0,0h0h0l0,0l0,0c0,0,0,0,0-0.1c0,0,0-0.1-0.2-0.2c-0.2-0.2-0.3-0.3-0.4-0.3
		c-0.1-0.1-0.1-0.1-0.1-0.1l0,0l0,0l0,0c0,0,0,0-0.1,0.1c-0.1,0.1-0.5,0.4-0.5,0.8C260.9,9.3,260.9,9.4,260.9,9.4 M262.3,16.2
		L262.3,16.2L262.3,16.2c0-0.1,0-0.1-0.1-0.2c-0.1-0.1-0.1-0.1-0.2-0.2c0,0-0.1-0.1-0.1-0.1l0,0c0,0,0,0,0,0c0,0-0.1,0-0.1,0
		c0,0,0,0-0.1,0c0,0-0.1,0-0.1,0.1c-0.1,0-0.2,0.1-0.3,0.2c0,0,0,0,0.1,0.1c0.1,0.1,0.3,0.3,0.5,0.4c0.1,0,0.2,0.1,0.3,0.1
		c0,0,0-0.1,0-0.1C262.2,16.3,262.3,16.2,262.3,16.2L262.3,16.2z M260.7,16.1c-0.2,0-0.3,0.1-0.4,0.2c-0.1,0-0.1,0.1-0.1,0.1
		c0,0,0,0,0.1,0c0.1,0,0.2-0.1,0.3-0.1c0.1,0,0.2,0,0.2,0c0-0.1,0.1-0.1,0.2-0.2C260.8,16.1,260.8,16.1,260.7,16.1 M262,15.1
		c-0.1-0.1-0.2-0.1-0.3-0.1c0,0,0,0,0.1,0c0.2,0.2,0.3,0.4,0.3,0.5c0,0,0,0,0,0l0,0l0,0l0,0v0c0,0,0.1,0.1,0.2,0.2
		C262.3,15.4,262.1,15.2,262,15.1 M285.6,16.8L285.6,16.8c0,0,0.1-0.1,0.1-0.1c0,0,0,0,0.1-0.1c-0.1-0.1-0.2-0.1-0.3-0.1
		c-0.2,0-0.3,0.1-0.4,0.1c-0.1,0-0.1,0.1-0.1,0.1c0,0,0,0,0.1,0c0.1,0,0.2,0,0.3,0C285.4,16.7,285.5,16.8,285.6,16.8L285.6,16.8z
		 M285.5,17.3c0,0.1,0.1,0.3,0.2,0.4c0.1,0.1,0.1,0.1,0.2,0.1c0.1,0,0.2,0,0.3,0c0.1,0,0.3,0,0.2-0.1c0-0.1-0.1-0.1-0.1-0.2
		c0-0.1-0.1-0.2-0.1-0.2c0-0.1-0.1-0.2-0.1-0.3c0,0,0-0.1,0-0.1c0,0-0.1-0.1-0.1-0.1c0,0-0.1,0-0.1,0.1c-0.2,0.2-0.2,0.2-0.3,0.3
		C285.6,17.2,285.5,17.2,285.5,17.3 M284.7,18.3c-0.1,0.1-0.1,0.3-0.1,0.4v0c0,0,0,0,0-0.1c0.1-0.3,0.3-0.3,0.4-0.4c0,0,0-0.1,0-0.1
		c0,0,0-0.1,0-0.2c0,0,0,0,0,0C284.9,18.1,284.8,18.2,284.7,18.3 M274.6,16.4c0,0,0.1,0,0.1,0c0,0,0.1,0,0.1,0h0h0c0,0,0,0,0.1,0
		c-0.1-0.2-0.2-0.3-0.3-0.4c-0.1-0.1-0.3-0.1-0.4-0.1c0,0-0.1,0-0.1,0c0,0,0,0,0.1,0C274.5,16,274.6,16.2,274.6,16.4L274.6,16.4
		L274.6,16.4z M286.3,18.9C286.3,18.8,286.3,18.8,286.3,18.9c-0.2,0.1-0.2,0.2-0.2,0.3c0,0.2,0.1,0.4,0.2,0.5c0,0,0,0,0-0.1
		c0-0.1,0-0.1,0-0.2c0-0.2,0.1-0.3,0.1-0.4v0l0-0.1c0,0,0,0,0,0C286.4,18.9,286.4,18.9,286.3,18.9 M287.9,18.9L287.9,18.9
		L287.9,18.9l-0.2,0h0c0,0-0.1,0-0.1,0c0.1,0.2,0.2,0.4,0.3,0.4c0.1,0.1,0.3,0.1,0.4,0.1c0,0,0,0,0,0c0,0,0,0-0.1,0
		C288,19.2,287.9,19,287.9,18.9 M261.7,18.5c-0.2,0.2-0.2,0.3-0.2,0.5c0,0.1,0,0.2,0,0.2c0,0,0,0,0-0.1c0.1-0.2,0.2-0.3,0.3-0.4
		C261.8,18.6,261.8,18.6,261.7,18.5C261.7,18.5,261.7,18.5,261.7,18.5 M272.6,16.6c-0.2,0-0.3,0.1-0.4,0.2c0,0,0,0,0.1,0
		c0,0,0.1,0,0.1,0c0.1,0,0.2,0,0.3,0c0-0.1,0.1-0.1,0.2-0.2C272.7,16.6,272.7,16.6,272.6,16.6 M272.9,17.5
		C272.9,17.5,272.9,17.5,272.9,17.5C272.9,17.6,272.9,17.6,272.9,17.5c0.1,0.1,0.1,0.1,0.2,0.1c0.1,0,0.1,0,0.1,0c0.1,0,0.1,0,0.2,0
		c0,0,0-0.1,0-0.1c0-0.1,0.1-0.2,0.1-0.2c0-0.1,0-0.1,0-0.2c0,0,0-0.1,0-0.1c-0.1-0.1-0.2-0.2-0.3-0.2c0,0-0.1-0.1-0.1-0.1
		c0,0-0.1,0-0.2,0.1c-0.1,0-0.1,0.1-0.2,0.1c0,0-0.1,0.1-0.1,0.1c0,0,0,0.1,0,0.1c0.1,0.1,0.1,0.2,0.1,0.3
		C272.9,17.4,272.9,17.5,272.9,17.5 M288.4,17.9c0,0-0.1-0.1-0.1-0.2c0-0.2,0.1-0.3,0.2-0.4c0,0,0,0,0,0c0.1-0.1,0.1-0.3,0.1-0.4
		c0-0.2-0.1-0.4-0.3-0.7c0,0,0-0.1,0-0.2c0-0.1,0-0.3,0.1-0.5c0.1-0.2,0.2-0.4,0.2-0.5c0-0.1,0-0.2-0.1-0.3c0,0.1-0.1,0.5-0.3,0.5
		c-0.1,0-0.1-0.2-0.1-0.3c0,0,0-0.1,0-0.1c0-0.1,0-0.2,0-0.3c0-0.2,0-0.4-0.1-0.6c0,0.1-0.1,0.2-0.1,0.3c0,0,0,0-0.1,0
		c0,0-0.1,0-0.1-0.1c0,0,0-0.1-0.1-0.1c0-0.1,0-0.1,0-0.1c0,0,0-0.2-0.1-0.3c0-0.2-0.1-0.4-0.1-0.5c0,0.1,0,0.1,0,0.2
		c0,0.1,0,0.2-0.2,0.3c-0.1,0-0.1-0.1-0.1-0.1c0-0.1,0-0.2-0.1-0.3c0-0.1-0.1-0.3-0.1-0.4c0-0.1-0.1-0.1-0.1-0.1c0,0,0,0,0,0.1
		c0,0-0.1,0.1-0.1,0.2c-0.1,0.2-0.2,0.3-0.4,0.5c-0.3,0.3-0.6,0.3-0.8,0.3c-0.3,0-0.9-0.1-1.4-0.4c-0.3-0.2-0.8-0.5-1.1-0.7
		l-0.1-0.1l0.1,0c0.1,0,0.2,0,0.3,0c0.5,0,1-0.1,1.4-0.2c0.4-0.2,0.6-0.5,0.8-0.8c0.2-0.3,0.4-0.5,0.8-0.8c0.2-0.1,0.5-0.2,0.7-0.2
		c0.3,0,0.5,0.1,0.6,0.1c-0.1-0.3-0.5-0.6-1-0.6c-0.4,0-0.7,0.1-1.1,0.5l-0.1,0.1l0-0.1v0c0,0,0,0,0,0c0,0,0-0.1,0-0.2
		c0-0.1-0.1-0.3-0.2-0.5c-0.2-0.3-0.7-0.7-1.7-0.7c-0.1,0-0.2,0-0.2,0c-0.8,0-2.3,0.5-3.6,0.8c-1.3,0.3-3.3,0.4-4.1,0.4
		c-0.3,0-0.6,0-0.9-0.1c-0.3-0.1-0.5-0.2-0.6-0.3c-0.1-0.1-0.1-0.2-0.1-0.4c0-0.3,0.2-0.5,0.4-0.6c0.2-0.1,0.5-0.1,0.7-0.1
		c0.6,0,1.5,0.4,2.2,0.7c0.5,0.2,1,0.2,1.3,0.2c0.7,0,1.7-0.4,2.1-0.6c0.4-0.2,0.7-0.3,1.2-0.3c0.1,0,0.3,0,0.4,0
		c-0.2-0.2-0.6-0.4-1.2-0.4c-0.4,0-0.8,0.1-1.2,0.3l0,0l0,0c0,0,0-0.1,0-0.1c0-0.1,0.1-0.2,0.2-0.4c0.1-0.1,0.2-0.2,0.4-0.3
		c-0.1-0.1-0.3-0.1-0.5-0.2c-0.3-0.1-0.6-0.1-1-0.1c0,0-0.1,0-0.1,0c-0.6,0-1,0.2-1.4,0.3c-0.4,0.2-0.8,0.3-1.4,0.3
		c-0.1,0-0.1,0-0.2,0c-0.1,0-0.2,0-0.4,0c-0.6,0-1.1,0.1-1.4,0.2c-0.4,0.2-0.6,0.5-0.6,0.9c0,0.4,0.2,0.7,0.6,0.9
		c0.4,0.2,1,0.4,1.7,0.4c0,0,0,0,0,0c1.9,0,4.1-0.4,5.4-0.7c0.4-0.1,1.4-0.3,2.2-0.3c0.4,0,0.7,0.1,1,0.2c0.3,0.2,0.4,0.4,0.4,0.8
		c0,0.2,0,0.4-0.2,0.6c-0.2,0.2-0.5,0.3-0.9,0.3c-0.5,0-1.2-0.2-1.9-0.3l-0.1,0c-0.2,0-0.3,0-0.5-0.1c-1.1-0.1-2.5-0.2-3.3-0.2
		c-0.1,0-0.1,0-0.2,0c-0.6,0-1.8,0.1-2.9,0.3c-1.1,0.2-2.2,0.4-2.5,0.5v0l0,1l-0.3-0.5c0,0,0,0,0,0.1c0,0.4-0.1,0.8-0.2,1.1
		c0,0.1-0.1,0.2-0.1,0.3c0,0,0,0,0,0.1l-0.2,0.5l-0.2-0.4c-0.1,0.4-0.3,0.9-0.6,1.2c-0.1,0.1-0.2,0.2-0.4,0.3c0,0,0,0,0,0
		c-0.1,0-0.1,0.1-0.1,0.1l-0.4,0.3v-0.8c-0.1,0.1-0.2,0.2-0.3,0.3c-0.2,0.2-0.4,0.2-0.6,0.2c-0.1,0-0.1,0-0.2,0l-0.4-0.1l0.2-0.3
		c0,0,0-0.1,0.1-0.2c0.1-0.2,0.1-0.3,0.1-0.3c0,0,0,0,0-0.1c0,0-0.1,0-0.2,0c0,0-0.1,0-0.2,0c-0.2,0-0.7,0.1-1.5,0.6
		c-0.4,0.2-0.9,0.5-1.3,0.7c-0.3,0.2-0.5,0.3-0.8,0.5c-0.4,0.2-0.8,0.4-1.2,0.5c-0.1,0-0.2,0-0.4,0c-0.2,0-0.4,0-0.5-0.2
		c-0.2,0-0.4-0.1-0.5-0.1c-0.2-0.1-0.3-0.2-0.4-0.3c-0.1-0.1-0.2-0.2-0.2-0.2c-0.2,0.2-0.4,0.4-0.4,0.8c0,0.1,0,0.2,0,0.2
		c0,0,0,0.1,0,0.1c0,0,0.1,0,0.1,0c0.9,0,1.3-0.1,1.4-0.1l0,0c0,0,0.1,0,0.1,0.1l0,0c0,0,0,0.1-0.1,0.1c0,0-0.5,0.1-1.4,0.1
		c0,0-0.1,0-0.1,0c0,0.2,0.1,0.5,0.2,0.6c0.1,0.2,0.3,0.3,0.4,0.3c0,0,0,0,0,0c0.7-0.5,1.1-0.6,1.2-0.6c0,0,0,0,0,0
		c0,0,0.1,0,0.1,0.1c0,0,0,0,0,0c0,0,0,0.1-0.1,0.1l0,0c0,0,0,0-0.1,0c-0.1,0-0.2,0.1-0.3,0.2c-0.1,0-0.2,0.1-0.3,0.2c0,0,0,0,0,0
		c0,0,0,0,0,0.1c0.1,0.2,0.2,0.3,0.3,0.5c0.1,0.1,0.2,0.2,0.3,0.2c0.1,0,0.3-0.1,0.4-0.3c0.1-0.1,0.2-0.2,0.5-0.3l0.6,0l0,0
		c0,0,0,0,0,0c0,0,0.1,0,0.1,0c0.1,0,0.2-0.1,0.2-0.2c0-0.1,0.1-0.1,0.1-0.1c0,0,0.1,0,0.2,0c0.1,0,0.2,0,0.4,0.1
		c0.3,0.1,0.5,0.1,0.6,0.1c0,0,0.1,0,0.1,0c0,0,0,0-0.1-0.1c-0.1-0.1-0.1-0.1-0.2-0.2c0,0-0.1-0.1-0.1-0.1c0,0,0,0,0-0.1
		c0,0,0.1-0.1,0.1-0.1c0,0,0.1,0,0.1,0c0,0,0,0,0.1,0.1c0.3,0.2,0.8,0.3,1.1,0.3c0.1,0,0.2,0,0.3,0c-0.1,0-0.2-0.1-0.2-0.2
		c0,0-0.1-0.1-0.1-0.1c0,0,0-0.1,0-0.1c0,0,0.1,0,0.1,0c0.1,0,0.3,0,0.3,0c0,0,0,0,0.1,0s0.1,0,0.2,0c0.2,0,0.4,0.1,0.5,0.1
		c0.2,0,0.4,0,0.5-0.1c-0.2-0.2-0.3-0.3-0.3-0.3c0,0,0,0-0.1-0.1c0,0,0-0.1,0-0.1c0,0,0.1,0,0.1,0c0.1,0,0.2,0,0.2,0c0,0,0,0,0.1,0
		c0.1,0,0.1,0,0.2,0.1c0.2,0,0.4,0.1,0.7,0.1c0.2,0,0.4,0,0.5-0.1c-0.2-0.1-0.2-0.1-0.2-0.2c0,0,0,0,0-0.1c0,0,0,0,0-0.1
		c0,0,0-0.1,0.1-0.1c0,0,0.1,0,0.1,0c0,0,0,0,0,0c0.1,0,0.1,0,0.2,0c0.4,0,0.6-0.1,0.7-0.1l-0.4-0.5c0,0,0.1-0.1,0.2-0.1
		c0,0,0.1-0.1,0.2-0.1c0.1,0,0.3-0.1,0.6-0.2c0.5-0.2,1.2-0.4,1.9-0.8c1.3-0.7,2.7-1.7,4-2c0.3-0.1,0.6-0.1,1-0.1
		c0.4,0,0.7,0,0.9,0.1c0.2,0,0.5,0.3,0.8,0.5c0.3,0.3,0.6,0.6,0.9,0.9c0.3,0.3,0.6,0.6,0.7,0.7c0,0,0.1,0,0.1,0.1c0,0,0,0,0.1,0.1
		c0.1,0,0.2,0.1,0.3,0.2c0.2,0.1,0.5,0.3,0.7,0.3c0-0.1-0.1-0.6,0.1-0.5c0.1,0,0.1,0.1,0.2,0.2c0.1,0.1,0.2,0.2,0.3,0.2
		c0.2,0.1,0.3,0.2,0.5,0.2c0.1,0,0.1,0,0.1,0c-0.1-0.1-0.2-0.2-0.2-0.2c0,0,0,0,0-0.1c0,0,0-0.1,0.1-0.1c0,0,0.1,0,0.2,0
		c0,0,0.1,0,0.1,0c0.1,0,0.2,0,0.3,0c0.2,0,0.5,0,0.8-0.1c0.4-0.1,0.7-0.2,0.8-0.2c0,0,0.1,0,0.1,0c0,0,0.1,0,0.2,0
		c0.1,0,0.1,0,0.2,0c0.1,0.1,0.1,0.1,0.2,0.2c0,0.1,0.1,0.2,0.1,0.2c0.1,0.3,0.3,0.6,0.3,1.1c0,0.1,0,0.2,0,0.2c0,0.1,0,0.4-0.2,0.6
		c-0.2,0.3-0.5,0.4-0.5,0.4c0,0-0.1,0-0.1,0c0,0-0.1,0-0.2,0c-0.2,0-0.3-0.1-0.5-0.1c0,0-0.1,0-0.1,0c-0.1,0.1-0.2,0.2-0.2,0.3
		c0,0.1,0.1,0.2,0.1,0.3l0,0c0,0,0,0,0,0c0,0,0,0.1,0.1,0.1c0.1,0.1,0.2,0.1,0.3,0.1c0,0,0,0,0.1,0c0.1,0,0.2-0.1,0.3-0.2
		c0.1-0.1,0.2-0.2,0.2-0.2l0,0l0.2-0.3c0,0,0,0,0,0c0,0,0,0,0.1,0c0,0,0,0,0.1,0c0,0,0.1,0.1,0.1,0.1c0,0,0,0,0,0.1c0,0,0,0,0,0
		c0,0,0,0-0.1,0.1c0,0-0.1,0.1-0.1,0.1c-0.1,0.1-0.1,0.2-0.1,0.2l0,0c0,0,0,0,0,0c0,0,0,0.1,0.1,0.1c0.1,0.1,0.1,0.1,0.2,0.2
		c0,0.1,0.1,0.1,0.1,0.1c0.1,0,0.3-0.1,0.4-0.2c0.1-0.1,0.1-0.2,0.2-0.3c0-0.1,0.1-0.3,0.1-0.4c0-0.1,0-0.1,0-0.2c0,0,0-0.1,0-0.1
		c0,0,0,0,0,0c0,0,0,0,0-0.1c0,0,0,0,0.1-0.1l0,0c0.1,0,0.1,0,0.1,0.1c0,0,0,0.1,0,0.1v0.1c0,0.1,0,0.2,0,0.3c0,0.1,0,0.2,0,0.3
		c0,0,0,0,0,0c0,0,0,0,0,0c0,0,0,0,0,0c0,0,0.1,0,0.1,0c0,0,0.5,0,0.5,0h0c0,0,0.1,0,0.2,0c0.1,0,0.1-0.1,0.1-0.3c0,0,0-0.1,0-0.1
		c0-0.1,0-0.2-0.1-0.2C288.5,18,288.4,17.9,288.4,17.9 M280.3,16.5c-0.1,0-0.3-0.1-0.4-0.1c-0.3-0.2-0.4-0.5-0.4-0.7
		c0-0.3,0.1-0.6,0.4-0.8c0.2-0.2,0.3-0.3,0.5-0.4c0,0-0.6-0.6-0.7-0.7c-0.2-0.2-0.4-0.3-0.7-0.4c-0.3-0.1-0.5,0-0.8,0.1
		c-0.2,0.1-0.3,0.2-0.5,0.2c-0.6,0.4-0.9,1.1-1,1.3c0,0,0.1,0,0.1-0.1c0.1-0.1,0.2-0.1,0.3-0.2c0,0,0,0,0.1,0c0,0,0.1,0,0.1,0.1
		c0,0,0,0.1,0,0.1c0,0.1,0,0.1,0,0.1c0,0,0,0,0,0.1c0,0.1,0,0.1-0.1,0.2c0,0.2-0.1,0.3-0.1,0.5c0.1-0.2,0.2-0.3,0.2-0.3c0,0,0,0,0,0
		c0,0,0,0,0.1,0c0,0,0,0,0.1,0c0,0,0,0,0,0.1c0,0,0,0,0,0.1c0,0.2,0,0.5,0.1,0.7c0.1,0.2,0.2,0.3,0.1,0.5c-0.1,0.2-0.3,0.3-0.4,0.4
		c-0.1,0.1-0.2,0.1-0.4,0.1c-0.1,0-0.3,0-0.5,0.1c-0.2,0.1-0.4,0.3-0.6,0.3c-0.1,0-0.1,0-0.2,0c-0.3,0-0.6-0.1-0.8-0.3
		c-0.1-0.1-0.1-0.2-0.1-0.3c0-0.3,0.2-0.5,0.3-0.6l0,0c0,0,0,0,0,0l0,0c0,0,0,0-0.1,0c0,0-0.1,0-0.1,0c-0.2,0-0.6,0-0.6,0
		c0,0-0.1,0-0.2,0.1l0,0c0,0,0,0,0,0c0,0-0.1,0.1-0.1,0.2c0,0.1,0,0.2,0,0.4c0,0.2-0.1,0.4-0.1,0.5c0,0,0,0.1,0,0.1
		c0,0.2,0.1,0.3,0.1,0.4c0.2,0.3,0.7,0.5,1.1,0.6c0.4,0.1,0.8,0.2,0.9,0.2c0,0,0.1,0,0.1,0c0.1,0,0.7-0.2,0.9-0.2
		c0.2,0,0.7-0.1,1-0.1c0,0-0.3-0.2-0.3-0.2c0,0,0,0,0,0c0,0,0-0.1,0-0.1c0,0,0,0,0,0c0,0,0-0.1,0.1-0.1c0,0,0.1,0,0.1,0
		c0,0,0.1,0,0.1,0c0,0,0.1,0,0.2,0c0.1,0,0.3,0,0.5,0c0.1,0,0.3,0,0.4,0c0.3,0,0.4-0.2,0.5-0.2c0,0,0,0-0.1,0c-0.1,0-0.1,0-0.2,0
		c0,0-0.1-0.1-0.2-0.1c0,0,0,0-0.1,0c0,0,0-0.1,0-0.1v0c0,0,0,0,0-0.1c0,0,0,0,0.1,0c0,0,0.1,0,0.1,0c0,0,0.1,0,0.2,0
		c0.1,0,0.3-0.1,0.4-0.1c0.2-0.1,0.4-0.2,0.5-0.3c0,0-0.1,0-0.1-0.1c-0.1,0-0.2-0.1-0.3-0.2c0,0,0,0,0,0c0,0,0-0.1,0-0.1l0,0
		c0,0,0,0,0,0c0,0,0,0,0.1,0c0,0,0.1,0,0.1,0c0,0,0,0,0.1,0c0.1,0,0.1,0,0.2,0c0.2,0,0.3-0.1,0.5-0.2c0.1,0,0.1-0.1,0.1-0.1
		c0,0,0,0,0,0C280.4,16.6,280.4,16.5,280.3,16.5 M272.3,18.1c-0.1,0.1-0.1,0.1-0.1,0.2c0,0,0,0,0,0c0.1-0.1,0.3-0.1,0.4-0.2
		c0,0,0-0.1,0-0.1l0,0v0c0,0,0-0.1,0-0.1C272.5,17.9,272.4,18,272.3,18.1 M273.6,18.7C273.6,18.7,273.5,18.7,273.6,18.7
		c-0.1,0.1-0.1,0.1-0.1,0.1c0,0,0,0,0,0.1c0,0,0,0.1,0,0.1c0,0,0,0.1,0,0.2c0,0.1,0.1,0.1,0.2,0.2c0.1,0,0.2,0.1,0.2,0.1
		c0.1,0,0.2-0.1,0.3-0.1c0-0.1,0.1-0.1,0.1-0.2C274.1,18.9,273.9,18.8,273.6,18.7C273.7,18.6,273.6,18.7,273.6,18.7 M273.5,18.4
		c-0.1-0.1-0.1-0.3-0.1-0.5c0,0,0-0.1,0-0.1v0c-0.1,0-0.2,0-0.2,0c0,0,0,0,0,0l0,0c0,0,0,0-0.1,0c0,0-0.1,0-0.1,0
		c0,0-0.1,0.1-0.1,0.2c0,0.1,0,0.2,0,0.2c0,0,0,0.1,0,0.1c0,0,0,0.1,0.1,0.1c0.2,0.1,0.3,0.1,0.4,0.1h0
		C273.4,18.5,273.4,18.5,273.5,18.4C273.5,18.5,273.5,18.5,273.5,18.4 M273.2,19c-0.1,0.2-0.2,0.4-0.1,0.5c0,0,0,0,0,0
		c0,0,0,0,0-0.1c0-0.1,0.1-0.2,0.2-0.2C273.2,19.2,273.2,19.1,273.2,19C273.2,19.1,273.2,19.1,273.2,19 M264.4,8.8
		c0.2,0.1,0.4,0.2,0.6,0.3c0.2,0.1,0.4,0.1,0.6,0.1c0.4,0,0.7-0.1,1.1-0.1c0.3-0.1,0.7-0.1,1-0.1c0.3,0,0.7,0.1,1,0.3
		c-0.3-0.2-0.6-0.4-1-0.4c-0.4,0-0.7,0-1.1,0c-0.4,0-0.7,0-1,0c-0.3,0-0.6-0.1-0.8-0.4l0,0c-0.1-0.1-0.3-0.1-0.4,0
		C264.3,8.6,264.3,8.7,264.4,8.8L264.4,8.8z"/>
	<path class="st2" d="M265.3,45c0.1-0.3,0.1-0.6,0.2-0.9l0,0c0.6,0.3,1.5,0.5,2.7,0.7c1.5,0.3,3.2,0.6,4.4,1.3
		c-0.3-0.1-0.7-0.2-1.1-0.4c-1.5-0.4-2.3-0.4-3.1-0.4C267.6,45.4,266.8,45.4,265.3,45 M282.6,45.5c-1.6,0.3-2.4,0.3-3.2,0.3
		c-0.8,0-1.6-0.1-3.2,0.3c-0.6,0.1-1,0.3-1.3,0.4c0.4-0.1,0.9-0.2,1.5-0.2c1.6-0.2,2.5-0.1,3.2,0.1c0.7,0.1,1.5,0.2,3.1,0.1
		C282.7,46,282.7,45.7,282.6,45.5 M275.3,46.1c0.3-0.1,0.7-0.2,1.1-0.4c1.5-0.4,2.3-0.4,3.1-0.4c0.7,0,1.5,0.1,3-0.3
		c-0.1-0.3-0.1-0.6-0.2-0.9c0,0,0,0,0,0c-0.6,0.3-1.5,0.5-2.7,0.7C278.3,45.1,276.5,45.4,275.3,46.1 M268.4,45.7
		c-0.8,0-1.6,0.1-3.2-0.3c-0.1,0.3-0.1,0.6-0.1,0.8c1.5,0.1,2.3,0,3.1-0.1c0.8-0.1,1.6-0.2,3.2-0.1c0.6,0.1,1.1,0.2,1.5,0.2
		c-0.3-0.1-0.8-0.2-1.3-0.4C270,45.7,269.3,45.7,268.4,45.7 M267.2,38.9l-1.6,4.8c1.3,0.9,6.3,0.7,8.1,2.9v-5.1
		C273.3,39.2,268.6,39.8,267.2,38.9 M280.7,38.9c-1.3,0.9-6,0.4-6.5,2.5v5.1c1.9-2.2,6.8-2,8.1-2.9L280.7,38.9z"/>
	<path class="st2" d="M258.7,26.1l0.2,0.4c0.1,0.2,0.3,0.2,0.4,0.2h0c-0.1,0.2-0.2,0.4-0.2,0.8c0,0.1,0,0.1,0,0.2
		c0,0.2,0,0.4-0.1,0.5c0,0-0.1,0.1-0.1,0.1c-0.1,0.1-0.3,0.3-0.2,0.6l0,0v0c0.1,0.3,0.3,0.3,0.5,0.3c0.1,0,0.1,0,0.2,0
		c0.1,0,0.3,0.2,0.3,0.4c0,0.1,0.1,0.1,0.1,0.1c0.2,0.3,0.5,0.5,0.7,0.6c-0.2,0.1-0.3,0.3-0.2,0.5l0.1,0.4c0,0.2,0.3,0.4,0.5,0.4
		c0,0,0.1,0,0.1,0l0.4-0.1c0.2,0,0.3-0.2,0.4-0.3c0.2,0.2,0.4,0.3,0.7,0.4c0.1,0,0.1,0,0.2,0.1c0.2,0,0.4,0.1,0.5,0.2
		c0,0,0.1,0.1,0.1,0.2c0.1,0.1,0.2,0.4,0.5,0.4h0l0,0v0c0.3,0,0.4-0.2,0.5-0.4c0-0.1,0.1-0.1,0.1-0.2c0.1-0.1,0.3-0.2,0.5-0.2
		c0.1,0,0.1,0,0.2-0.1c0.3-0.1,0.6-0.3,0.8-0.5c0,0.1,0,0.2,0.1,0.2c0.1,0.1,0.2,0.2,0.3,0.2l0.4,0c0,0,0,0,0.1,0
		c0.3,0,0.5-0.2,0.5-0.4l0-0.4c0-0.1,0-0.3-0.1-0.4c0,0-0.1-0.1-0.1-0.1c0.2-0.1,0.4-0.3,0.6-0.5c0,0,0.1-0.1,0.1-0.2
		c0.1-0.1,0.2-0.3,0.3-0.4c0,0,0.1,0,0.2,0c0.2,0,0.4-0.1,0.5-0.3l0,0v0l0,0c0.1-0.3-0.1-0.5-0.2-0.6c0,0-0.1-0.1-0.1-0.1
		c-0.1-0.1-0.1-0.3-0.1-0.5c0-0.1,0-0.1,0-0.2c0-0.4-0.1-0.7-0.2-0.9c0,0,0,0,0.1,0c0.2,0,0.4-0.1,0.5-0.3l0.2-0.4
		c0.1-0.1,0.1-0.3,0-0.4c0-0.1-0.1-0.2-0.3-0.3l-0.4-0.2c-0.1,0-0.1,0-0.2,0c-0.1,0-0.2,0-0.3,0.1c0-0.2-0.1-0.5-0.3-0.7
		c0,0-0.1-0.1-0.1-0.2c-0.1-0.1-0.2-0.3-0.3-0.4c0-0.1,0-0.1,0-0.2c0-0.2,0-0.4-0.2-0.6l0,0h0l0,0c-0.1-0.1-0.2-0.1-0.3-0.1
		c-0.1,0-0.2,0-0.3,0.1c-0.1,0-0.1,0.1-0.2,0.1c0,0,0,0-0.1,0c-0.1,0-0.3-0.1-0.4-0.1c-0.1,0-0.1,0-0.2-0.1
		c-0.2-0.1-0.4-0.1-0.6-0.1c-0.1,0-0.2,0-0.3,0c0-0.1,0.1-0.2,0-0.2c0-0.1-0.1-0.3-0.2-0.3L264,22c-0.1-0.1-0.2-0.1-0.3-0.1
		c-0.1,0-0.3,0.1-0.4,0.2l-0.3,0.3c-0.1,0.1-0.2,0.3-0.1,0.5c-0.1,0-0.2,0-0.2,0c-0.2,0-0.4,0-0.6,0.1c-0.1,0-0.1,0-0.2,0.1
		c-0.1,0-0.3,0.1-0.4,0.1c0,0,0,0-0.1,0c-0.1,0-0.1,0-0.2-0.1c-0.1,0-0.2-0.1-0.3-0.1c-0.1,0-0.2,0-0.3,0.1h0l0,0
		c-0.2,0.2-0.2,0.4-0.2,0.6c0,0.1,0,0.1,0,0.2c0,0.1-0.2,0.3-0.3,0.4c0,0.1-0.1,0.1-0.1,0.2c-0.2,0.3-0.3,0.6-0.3,0.9
		c-0.1-0.1-0.2-0.1-0.3-0.1c-0.1,0-0.2,0-0.2,0.1l-0.4,0.2c-0.1,0.1-0.2,0.2-0.2,0.3C258.6,25.8,258.6,25.9,258.7,26.1"/>
	<path class="st2" d="M263.8,25.1c0.5,0,0.9,0.3,1,0.8c0,0,0.1,0,0.1,0c0.4,0,0.8,0.3,1,0.7c0.2,0.5-0.1,1-0.5,1.2
		c0.1,0.2,0.1,0.4,0.1,0.6c0,0.3-0.2,0.5-0.4,0.7c-0.2,0.1-0.4,0.2-0.6,0.2c-0.3,0-0.5-0.1-0.7-0.3c-0.2,0.2-0.4,0.3-0.7,0.3
		c-0.2,0-0.4-0.1-0.6-0.2c-0.4-0.3-0.5-0.8-0.3-1.2c-0.2-0.1-0.3-0.2-0.4-0.4c-0.1-0.2-0.1-0.5-0.1-0.8c0.1-0.4,0.5-0.7,1-0.7
		c0,0,0.1,0,0.1,0c0-0.2,0.1-0.4,0.3-0.5C263.2,25.2,263.5,25.1,263.8,25.1"/>
	<path class="st1" d="M263.9,25.1c0.4,0.1,0.8,0.4,0.9,0.8c0,0,0.1,0,0.1,0c0.4,0,0.8,0.2,0.9,0.6c0.3-0.1,0.6-0.2,0.8-0.3
		c0.8-0.4,0.9-0.9,0.4-1.6c-0.1-0.2-0.4-0.5-0.4-0.8c0-0.2,0.1-0.4,0-0.5s-0.3,0.1-0.5,0.1c-0.3,0.1-0.6-0.1-0.9-0.2
		c-0.7-0.2-1.2,0-1.3,0.9C263.9,24.4,263.9,24.7,263.9,25.1 M263.7,23.2c0,0,0.1,0,0.2,0l0.3-0.5c0,0,0-0.1,0-0.2l-0.3-0.3
		c0,0-0.1,0-0.2,0l-0.3,0.3c0,0,0,0.1,0,0.2L263.7,23.2z M260.9,26.1c0.2,0.1,0.5,0.2,0.8,0.3c0.2-0.3,0.5-0.6,0.9-0.6
		c0,0,0.1,0,0.1,0c0-0.2,0.1-0.4,0.3-0.5c0.2-0.2,0.4-0.3,0.6-0.3c0-0.4,0-0.7-0.1-0.9c-0.1-0.9-0.6-1.1-1.3-0.9
		c-0.2,0.1-0.6,0.2-0.9,0.2c-0.2,0-0.4-0.2-0.5-0.1c-0.1,0.1,0,0.3,0,0.5c0,0.3-0.3,0.6-0.4,0.8C260.1,25.2,260.1,25.7,260.9,26.1
		 M259,25.9l0.2,0.4c0,0.1,0.1,0.1,0.2,0l0.5-0.2c0.1,0,0.1-0.1,0-0.2l-0.4-0.4c0-0.1-0.1-0.1-0.2,0l-0.4,0.2
		C259,25.7,259,25.8,259,25.9 M267.6,26.1l0.5,0.1c0.1,0,0.1,0,0.1-0.1l0.2-0.4c0-0.1,0-0.1-0.1-0.1l-0.4-0.2c-0.1,0-0.1,0-0.1,0.1
		l-0.3,0.5C267.6,26,267.6,26,267.6,26.1 M261.5,30.6c0-0.1-0.1-0.1-0.1-0.1l-0.5,0.2c-0.1,0-0.1,0.1-0.1,0.1l0.1,0.4
		c0,0.1,0.1,0.1,0.1,0.1l0.4-0.1c0.1,0,0.1-0.1,0.1-0.1L261.5,30.6z M268,27.5c0-0.8-0.4-1.2-1.3-1c-0.2,0-0.5,0.1-0.9,0.2
		c0.1,0.4-0.1,0.9-0.5,1.1c0.1,0.2,0.1,0.4,0.1,0.6c0,0.2-0.1,0.4-0.3,0.6c0.2,0.3,0.4,0.5,0.5,0.6c0.6,0.6,1.2,0.5,1.6-0.1
		c0.1-0.2,0.3-0.5,0.6-0.6c0.2-0.1,0.4-0.1,0.5-0.2c0-0.1-0.2-0.2-0.3-0.4C268,28.1,268,27.7,268,27.5 M262.2,27.8
		c-0.2-0.1-0.3-0.2-0.4-0.4c-0.1-0.2-0.1-0.5-0.1-0.7c-0.3-0.1-0.6-0.2-0.8-0.2c-0.9-0.1-1.2,0.2-1.3,1c0,0.2,0,0.6-0.1,0.9
		c-0.1,0.2-0.3,0.3-0.3,0.4v0c0,0.1,0.3,0.1,0.5,0.2c0.3,0.1,0.5,0.5,0.6,0.6c0.5,0.6,1,0.7,1.6,0.1c0.1-0.1,0.4-0.4,0.5-0.6
		C262.1,28.7,262,28.2,262.2,27.8 M266.8,30.6l-0.5-0.2c-0.1,0-0.1,0-0.1,0.1l0,0.5c0,0.1,0,0.1,0.1,0.1l0.4,0c0.1,0,0.1,0,0.1-0.1
		l0-0.4C266.9,30.7,266.8,30.6,266.8,30.6 M265.4,29.8c0.4,0.8,0.2,1.3-0.6,1.5c-0.2,0.1-0.6,0.2-0.8,0.4c-0.1,0.2-0.2,0.4-0.3,0.4
		c-0.1,0-0.2-0.2-0.3-0.4c-0.2-0.2-0.6-0.3-0.8-0.4c-0.7-0.3-1-0.7-0.6-1.5c0.1-0.2,0.2-0.4,0.4-0.7c0.2,0.1,0.3,0.1,0.5,0.1
		c0.3,0,0.5-0.1,0.7-0.3c0.2,0.2,0.4,0.3,0.7,0.3c0.2,0,0.4-0.1,0.5-0.2C265.2,29.4,265.4,29.6,265.4,29.8"/>
	<path class="st1" d="M262.4,27.5c0.1,0,0.1,0,0.2,0c0,0,0,0,0,0c0,0,0.1,0,0.1,0c0,0,0,0.1,0,0.2c0,0-0.1,0.1-0.1,0.1
		c-0.2,0.3-0.1,0.7,0.1,0.9c0.3,0.2,0.7,0.1,0.9-0.1c0,0,0.1-0.1,0.1-0.1h0c0,0,0-0.1,0.1-0.1c0.1,0,0.1,0,0.1,0.1
		c0,0,0,0.1,0.1,0.1c0.2,0.3,0.6,0.3,0.9,0.1c0.3-0.2,0.3-0.6,0.1-0.9c0,0-0.1-0.1-0.1-0.1c0,0,0-0.1,0-0.1c0-0.1,0-0.1,0.1-0.1
		c0,0,0,0,0,0c0.1,0,0.1,0,0.2,0c0.3-0.1,0.5-0.5,0.4-0.8c-0.1-0.3-0.5-0.5-0.8-0.4c-0.1,0-0.1,0-0.2,0.1h0c0,0-0.1,0-0.1,0
		c-0.1,0-0.1-0.1-0.1-0.1c0,0,0-0.1,0-0.2c0-0.4-0.3-0.6-0.6-0.6c-0.4,0-0.6,0.3-0.6,0.6c0,0.1,0,0.1,0,0.2c0,0,0,0.1,0,0.1
		c0,0-0.1,0.1-0.1,0v0c0,0-0.1,0-0.1-0.1c-0.3-0.1-0.7,0.1-0.8,0.4C261.9,27.1,262.1,27.4,262.4,27.5"/>
	<path class="st2" d="M263.2,27.3c0-0.3,0.2-0.5,0.5-0.5c0.3,0,0.5,0.2,0.5,0.5s-0.2,0.5-0.5,0.5C263.5,27.8,263.2,27.6,263.2,27.3"
		/>
	<path class="st2" d="M289.2,26.1l-0.2,0.4c-0.1,0.2-0.3,0.2-0.4,0.2h0c0.1,0.2,0.2,0.4,0.2,0.8c0,0.1,0,0.1,0,0.2
		c0,0.2,0,0.4,0.1,0.5c0,0,0.1,0.1,0.1,0.1c0.1,0.1,0.3,0.3,0.2,0.6l0,0v0c-0.1,0.3-0.3,0.3-0.5,0.3c-0.1,0-0.1,0-0.2,0
		c-0.1,0-0.3,0.2-0.3,0.4c0,0.1-0.1,0.1-0.1,0.1c-0.2,0.3-0.5,0.5-0.7,0.6c0.2,0.1,0.3,0.3,0.2,0.5l-0.1,0.4c0,0.2-0.3,0.4-0.5,0.4
		c0,0-0.1,0-0.1,0l-0.4-0.1c-0.2,0-0.3-0.2-0.4-0.3c-0.2,0.2-0.4,0.3-0.7,0.4c-0.1,0-0.1,0-0.2,0.1c-0.2,0-0.4,0.1-0.5,0.2
		c0,0-0.1,0.1-0.1,0.2c-0.1,0.1-0.2,0.4-0.5,0.4h0l0,0v0c-0.3,0-0.4-0.2-0.5-0.4c0-0.1-0.1-0.1-0.1-0.2c-0.1-0.1-0.3-0.2-0.5-0.2
		c-0.1,0-0.1,0-0.2-0.1c-0.3-0.1-0.6-0.3-0.8-0.5c0,0.1,0,0.2-0.1,0.2c-0.1,0.1-0.2,0.2-0.3,0.2l-0.4,0c0,0,0,0-0.1,0
		c-0.3,0-0.5-0.2-0.5-0.4l0-0.4c0-0.1,0-0.3,0.1-0.4c0,0,0.1-0.1,0.1-0.1c-0.2-0.1-0.4-0.3-0.6-0.5c0,0-0.1-0.1-0.1-0.2
		c-0.1-0.1-0.2-0.3-0.3-0.4c0,0-0.1,0-0.2,0c-0.2,0-0.4-0.1-0.5-0.3l0,0v0l0,0c-0.1-0.3,0.1-0.5,0.2-0.6c0,0,0.1-0.1,0.1-0.1
		c0.1-0.1,0.1-0.3,0.1-0.5c0-0.1,0-0.1,0-0.2c0-0.4,0.1-0.7,0.2-0.9c0,0,0,0-0.1,0c-0.2,0-0.4-0.1-0.5-0.3l-0.2-0.4
		c-0.1-0.1-0.1-0.3,0-0.4c0-0.1,0.1-0.2,0.3-0.3l0.4-0.2c0.1,0,0.1,0,0.2,0c0.1,0,0.2,0,0.3,0.1c0-0.2,0.1-0.5,0.3-0.7
		c0,0,0.1-0.1,0.1-0.2c0.1-0.1,0.2-0.3,0.3-0.4c0-0.1,0-0.1,0-0.2c0-0.2,0-0.4,0.2-0.6l0,0h0l0,0c0.1-0.1,0.2-0.1,0.3-0.1
		c0.1,0,0.2,0,0.3,0.1c0.1,0,0.1,0.1,0.2,0.1c0,0,0,0,0.1,0c0.1,0,0.3-0.1,0.4-0.1c0.1,0,0.1,0,0.2-0.1c0.2-0.1,0.4-0.1,0.6-0.1
		c0.1,0,0.2,0,0.3,0c0-0.1-0.1-0.2,0-0.2c0-0.1,0.1-0.3,0.2-0.3l0.3-0.3c0.1-0.1,0.2-0.1,0.3-0.1c0.1,0,0.3,0.1,0.4,0.2l0.3,0.3
		c0.1,0.1,0.2,0.3,0.1,0.5c0.1,0,0.2,0,0.2,0c0.2,0,0.4,0,0.6,0.1c0.1,0,0.1,0,0.2,0.1c0.1,0,0.3,0.1,0.4,0.1c0,0,0,0,0.1,0
		c0.1,0,0.1,0,0.2-0.1c0.1,0,0.2-0.1,0.3-0.1c0.1,0,0.2,0,0.3,0.1h0l0,0c0.2,0.2,0.2,0.4,0.2,0.6c0,0.1,0,0.1,0,0.2
		c0,0.1,0.2,0.3,0.3,0.4c0,0.1,0.1,0.1,0.1,0.2c0.2,0.3,0.3,0.6,0.3,0.9c0.1-0.1,0.2-0.1,0.3-0.1c0.1,0,0.2,0,0.2,0.1l0.4,0.2
		c0.1,0.1,0.2,0.2,0.2,0.3C289.3,25.8,289.3,25.9,289.2,26.1"/>
	<path class="st2" d="M284.1,25.1c-0.5,0-0.9,0.3-1,0.8c0,0-0.1,0-0.1,0c-0.4,0-0.8,0.3-1,0.7c-0.2,0.5,0.1,1,0.5,1.2
		c-0.1,0.2-0.1,0.4-0.1,0.6c0,0.3,0.2,0.5,0.4,0.7c0.2,0.1,0.4,0.2,0.6,0.2c0.3,0,0.5-0.1,0.7-0.3c0.2,0.2,0.4,0.3,0.7,0.3
		c0.2,0,0.4-0.1,0.6-0.2c0.4-0.3,0.5-0.8,0.3-1.2c0.2-0.1,0.3-0.2,0.4-0.4c0.1-0.2,0.1-0.5,0.1-0.8c-0.1-0.4-0.5-0.7-1-0.7
		c0,0-0.1,0-0.1,0c0-0.2-0.1-0.4-0.3-0.5C284.7,25.2,284.4,25.1,284.1,25.1"/>
	<path class="st1" d="M284,25.1c0-0.4,0-0.7-0.1-0.9c-0.1-0.9-0.6-1.1-1.3-0.9c-0.2,0.1-0.6,0.2-0.9,0.2c-0.2,0-0.4-0.2-0.5-0.1h0
		c-0.1,0.1,0,0.3,0,0.5c0,0.3-0.3,0.6-0.4,0.8c-0.4,0.6-0.4,1.2,0.4,1.6c0.2,0.1,0.5,0.2,0.8,0.3c0.2-0.4,0.5-0.6,0.9-0.6
		c0,0,0.1,0,0.1,0C283.2,25.5,283.6,25.2,284,25.1 M284.5,22.8c0,0,0-0.1,0-0.2l-0.3-0.3c0,0-0.1-0.1-0.2,0l-0.3,0.3
		c0,0,0,0.1,0,0.2l0.3,0.5c0,0,0.1,0.1,0.2,0L284.5,22.8z M287,26.1c0.8-0.4,0.9-0.9,0.4-1.6c-0.1-0.2-0.4-0.5-0.4-0.8
		c0-0.2,0.1-0.4,0-0.5c-0.1-0.1-0.3,0.1-0.5,0.1c-0.3,0.1-0.6-0.1-0.9-0.2c-0.7-0.2-1.2,0-1.3,0.9c0,0.2-0.1,0.5-0.1,0.9
		c0.2,0,0.5,0.1,0.6,0.3c0.1,0.1,0.2,0.3,0.3,0.5c0,0,0.1,0,0.1,0c0.4,0,0.7,0.2,0.9,0.6C286.5,26.4,286.8,26.2,287,26.1
		 M288.9,25.9c0-0.1,0-0.1,0-0.2l-0.4-0.2c-0.1,0-0.1,0-0.2,0l-0.4,0.4c0,0.1,0,0.1,0,0.2l0.5,0.2c0.1,0,0.1,0,0.2,0L288.9,25.9
		 M280.2,26.1c0.1,0,0.1-0.1,0.1-0.1l-0.3-0.5c0-0.1-0.1-0.1-0.1-0.1l-0.4,0.2c-0.1,0-0.1,0.1-0.1,0.1l0.2,0.4
		c0,0.1,0.1,0.1,0.1,0.1L280.2,26.1 M286.4,31.1c0,0.1,0,0.1,0.1,0.1l0.4,0.1c0.1,0,0.1,0,0.1-0.1l0.1-0.4c0-0.1,0-0.1-0.1-0.1
		l-0.5-0.2c-0.1,0-0.1,0-0.1,0.1L286.4,31.1z M279.9,27.5c0,0.2,0,0.6-0.1,0.9c-0.1,0.2-0.3,0.3-0.3,0.4c0,0.1,0.3,0.1,0.5,0.2
		c0.3,0.1,0.5,0.5,0.6,0.6c0.5,0.6,1,0.7,1.6,0.1c0.1-0.1,0.4-0.4,0.5-0.6c-0.2-0.2-0.3-0.4-0.3-0.6c0-0.2,0-0.4,0.1-0.6
		c-0.4-0.2-0.6-0.7-0.5-1.1c-0.3-0.1-0.7-0.2-0.9-0.2C280.3,26.3,279.9,26.7,279.9,27.5 M285.7,27.8c0.2,0.4,0.1,0.9-0.2,1.2
		c0.2,0.3,0.4,0.5,0.5,0.6c0.6,0.6,1.2,0.5,1.6-0.1c0.1-0.2,0.3-0.5,0.6-0.6c0.2-0.1,0.4-0.1,0.5-0.2v0c0-0.1-0.2-0.2-0.3-0.4
		c-0.1-0.3-0.1-0.6-0.1-0.9c0-0.8-0.4-1.2-1.3-1c-0.2,0-0.5,0.1-0.8,0.2c0.1,0.2,0,0.5-0.1,0.7C286.1,27.6,285.9,27.7,285.7,27.8
		 M281.1,30.6c-0.1,0-0.1,0.1-0.1,0.1l0,0.4c0,0.1,0.1,0.1,0.1,0.1l0.4,0c0.1,0,0.1-0.1,0.1-0.1l0-0.5c0-0.1-0.1-0.1-0.1-0.1
		L281.1,30.6 M282.4,29.8c0.1-0.2,0.2-0.5,0.4-0.7c0.2,0.1,0.3,0.2,0.5,0.2c0.3,0,0.5-0.1,0.7-0.3c0.2,0.2,0.4,0.3,0.7,0.3
		c0.2,0,0.4-0.1,0.5-0.1c0.2,0.3,0.3,0.5,0.4,0.7c0.4,0.8,0.2,1.3-0.6,1.5c-0.2,0.1-0.6,0.2-0.8,0.4c-0.1,0.2-0.2,0.4-0.3,0.4
		c-0.1,0-0.2-0.2-0.3-0.4c-0.2-0.2-0.6-0.3-0.8-0.4C282.3,31.1,282,30.6,282.4,29.8"/>
	<path class="st1" d="M285.5,27.5c-0.1,0-0.1,0-0.2,0c0,0,0,0,0,0c0,0-0.1,0-0.1,0c0,0,0,0.1,0,0.2c0,0,0.1,0.1,0.1,0.1
		c0.2,0.3,0.1,0.7-0.1,0.9c-0.3,0.2-0.7,0.1-0.9-0.1c0,0-0.1-0.1-0.1-0.1h0c0,0,0-0.1-0.1-0.1c-0.1,0-0.1,0-0.1,0.1h0
		c0,0,0,0.1-0.1,0.1c-0.2,0.3-0.6,0.3-0.9,0.1c-0.3-0.2-0.3-0.6-0.1-0.9c0,0,0.1-0.1,0.1-0.1h0c0,0,0-0.1,0-0.1c0-0.1,0-0.1-0.1-0.1
		c0,0,0,0,0,0c-0.1,0-0.1,0-0.2,0c-0.3-0.1-0.5-0.5-0.4-0.8c0.1-0.3,0.5-0.5,0.8-0.4c0.1,0,0.1,0,0.2,0.1h0c0,0,0.1,0,0.1,0
		c0.1,0,0.1-0.1,0.1-0.1c0,0,0-0.1,0-0.2c0-0.4,0.3-0.6,0.6-0.6c0.4,0,0.6,0.3,0.6,0.6c0,0.1,0,0.1,0,0.2c0,0,0,0.1,0,0.1
		c0,0,0.1,0.1,0.1,0v0c0,0,0.1,0,0.1-0.1c0.3-0.1,0.7,0.1,0.8,0.4C286,27.1,285.8,27.4,285.5,27.5"/>
	<path class="st2" d="M284.7,27.3c0-0.3-0.2-0.5-0.5-0.5c-0.3,0-0.5,0.2-0.5,0.5s0.2,0.5,0.5,0.5C284.4,27.8,284.7,27.6,284.7,27.3"
		/>
	<path d="M182.8,16.3c0-2,0.6-3.8,2-5c1.1-0.9,2.6-1.4,4.1-1.4c1.5,0,2.7,0.5,3.7,1.1c0,0,1.3,0.8,1.3,2.3c0,0.7-0.6,1.3-1.3,1.3
		c-0.7,0-1.2-0.6-1.2-1.3c0-0.4,0.1-1-0.2-1.4c-0.6-1.2-2.2-1.1-2.2-1.1c-2.4,0-3.5,2.4-3.5,5.4c0,4,2.2,5.4,4.1,5.4
		c0,0,2.1,0,3.9-2.3l0.8,0.5c-1.1,1.7-3.1,2.9-5.3,2.9C185.6,22.7,182.8,19.8,182.8,16.3 M187.8,28.9h-4.9v0.6l1.8,0.5l-2.9,8.1
		l-3-8.1l1.7-0.5v-0.7h-5.6v0.7l1.5,0.4l4.1,10.2h1.3l4.3-10.1l1.6-0.4V28.9z M152.3,25.6L152.3,25.6
		C152.3,25.6,152.3,25.6,152.3,25.6l2.1-0.6v-0.8h-5.6v0.7l2.2,0.6v10.3c0,0,0.2,3.5-4.4,3.5s-4.5-3-4.5-3.5V25.5l2.3-0.6v-0.7h-6.8
		v0.7l2.2,0.6v10.1c0,0-0.4,4.8,6.5,4.8c6.5,0,6.1-4.5,6.1-4.5V25.6z M242.5,29.6l2,0.5l-3,7.9l-3.2-8l1.6-0.5v-0.7h-5.5v0.7L236,30
		l4.4,10.9c-0.3,0.5-0.6,1.1-0.8,1.6c-0.3,0.6-1,1.7-1.8,1.8c-0.7,0.1-0.9-0.8-1.5-1.2c-1.1-0.6-2,0.8-1.3,1.7
		c0.3,0.4,1,0.7,1.5,0.7c0.6,0,1.2-0.1,1.8-0.3c0.3-0.1,0.6-0.3,0.9-0.5c0.5-0.5,0.9-1,1.2-1.6c0.5-1,1-2,1.5-3
		c0.4-0.9,0.7-1.8,1.1-2.7c0.5-1.1,0.9-2.1,1.4-3.2c0.4-0.9,0.8-1.9,1.2-2.8c0.2-0.4,0.4-0.9,0.6-1.3c0,0,0,0,0,0l1.6-0.4v-0.7h-5
		V29.6z M152.5,17l-0.6-0.2v0l-0.1,0c-1.7,2.9-5,4.7-7.2,4.7c0,0-2.3,0.1-2.3-1.9v-13l2.2-0.6l0-0.6h-7v0.7l2.1,0.5V21l-2.1,0.6v0.8
		h13L152.5,17z M169,21l-2.1,0.7v0.8h6.6v-0.8l-2.1-0.7v-7.7v0c0.6-0.5,1.2-0.9,1.9-1.2c0.8-0.4,1.9-0.9,2.8-0.8
		c0.5,0.1,1,0.4,1.3,0.8c0.4,0.6,0.6,1.4,0.6,2.1l0,6.8c0-0.1,0,0.1,0,0.1l-2.1,0.6v0.8h6.7l0-0.8l-2.1-0.7v-7.7
		c0-0.9-0.3-1.7-1-2.2c-0.7-0.6-1.6-0.9-2.5-1c-1.6-0.2-3.2,0.4-4.5,1.2c-0.4,0.3-0.8,0.5-1.1,0.8v-1.8h-0.9l-3.7,1v0.7h2.2V21z
		 M178.1,20.9L178.1,20.9L178.1,20.9z M164,38.8L164,38.8L164,38.8z M166.3,38.8v-7.1c0-0.8-0.3-1.5-0.9-2c-0.6-0.5-1.5-0.8-2.3-0.9
		c-1.5-0.2-2.9,0.3-4.2,1.1c-0.4,0.2-0.7,0.5-1,0.7v-1.7h-0.8l-3.4,0.9v0.7h2v8.3l-1.9,0.6v0.7h6.1v-0.7l-1.9-0.6v-7.1v0
		c0.5-0.4,1.1-0.8,1.7-1.1c0.8-0.4,1.7-0.9,2.6-0.7c0.4,0.1,0.9,0.4,1.2,0.7c0.4,0.5,0.5,1.3,0.5,1.9l0,6.2v0.1l-1.9,0.6v0.7h6.1
		l0-0.7L166.3,38.8z M214.8,14.7c-1.9-0.4-3.4-0.9-3.4-2.1c0-1.5,1.8-1.6,2.6-1.6c3.4,0.1,4.4,3,4.4,3h0.8l-0.8-3.8h-0.7l-0.2,0.8
		c-0.6-0.4-1.9-1.1-3.4-1.1c-3,0-4.8,1.8-4.8,3.7c0,1.9,2.5,2.8,4.4,3.3c1.8,0.5,4.3,0.6,4.3,2.4c0,2.2-3,2.2-3,2.2
		c-4.1,0-5.1-3.6-5.1-3.6H209l0.8,4.5h0.8l0.3-1c0,0,2,1.2,4.2,1.2c3,0,5.1-2,5.1-4.1C220.1,15.6,216.8,15.1,214.8,14.7 M231.8,39.4
		c-1,0-1.6-0.8-1.8-1.5c-0.1-0.3,0-0.9,0-1.5l0-6.7h3.3v-0.7H230v-4.3H229c0,0,0.1,1.9-0.9,3.3c-0.7,1-2.2,1.1-2.2,1.1v0.7h1.8v6.9
		c0,0.5,0,1.1,0,1.4c0,1.5,1.5,2.4,3.1,2.4c2.1,0,3-0.9,3.6-1.5l-0.6-0.5C233.2,38.8,232.6,39.4,231.8,39.4 M222.1,18.5
		c0,0.6,0,1.2,0,1.5c0,1.6,1.6,2.6,3.4,2.6c2.1,0,3.1-0.8,3.7-1.5c-0.2-0.2-0.3-0.5-0.5-0.7c-0.7,0.6-1.3,1.1-2.2,1.1
		c-1.1,0-1.7-0.8-1.9-1.7c-0.1-0.4,0-1,0-1.6l0-7.2h3.6v-0.8h-3.6V5.5h-1.1c0,0,0.1,2.1-1,3.5c-0.8,1.1-2.3,1.2-2.3,1.2V11h2V18.5z
		 M228.6,16.3c0-2.1,0.8-4.1,2.4-5.2c1-0.7,2.2-1.1,3.6-1.1c3,0,5.3,2,5.4,5.1h-8.8c0,0-0.9,6.3,4.1,6.3c0,0,2.6,0.1,3.9-2.3
		l0.8,0.4c-0.6,1.8-2.7,3-5,3C231.5,22.6,228.6,19.8,228.6,16.3 M231.3,14.1h6.1c-0.1-1.9-1.3-3.2-3-3.2
		C233.1,10.9,231.3,11.7,231.3,14.1 M190,33.4c0,0-0.9,5.8,3.8,5.8c0,0,2.4,0.1,3.6-2.1l0.7,0.3c-0.6,1.6-2.5,2.8-4.6,2.8
		c-3.2,0-5.8-2.6-5.8-5.8c0-1.9,0.8-3.7,2.2-4.8c0.9-0.7,2.1-1,3.3-1c2.8,0,4.9,1.9,5,4.7H190z M190.1,32.5h5.6
		c-0.1-1.8-1.2-2.9-2.8-2.9C191.7,29.6,190.1,30.3,190.1,32.5 M250.2,10L250.2,10C250.2,10,250.2,10,250.2,10
		C250.1,10,250.1,10,250.2,10c-2.6-0.6-4.6,1.5-5,2v-1.8h-1l-3.6,1v0.7h2.2v9.2l-2.1,0.6v0.7h6.8v-0.7l-2.3-0.6v-7.9
		c0.1-0.2,1.3-1.4,2.3-1.4c1.1,0,1.2,0.7,2.3,0.8c0,0,0,0,0,0c0,0,0,0,0,0c0,0,0.1,0,0.1,0c0.7,0,1.3-0.6,1.3-1.3
		C251.2,10.7,250.8,10.2,250.2,10 M207.9,28.8L207.9,28.8C207.9,28.7,207.9,28.7,207.9,28.8C207.9,28.7,207.8,28.7,207.9,28.8
		c-2.4-0.5-4.2,1.4-4.6,1.8v-1.7h-0.9l-3.3,0.9v0.7h2v8.4l-1.9,0.5v0.7h6.3v-0.7l-2.1-0.5v-7.2c0.1-0.1,1.2-1.3,2.1-1.3
		c1,0,1.1,0.7,2.1,0.8c0,0,0,0,0,0h0c0,0,0.1,0,0.1,0c0.7,0,1.2-0.5,1.2-1.2C208.8,29.4,208.4,28.9,207.9,28.8 M173.3,28.9l-4.1,0.4
		v0.9h1.9v8.5l-2,0.6l0,0.7h6.1v-0.7l-1.9-0.6V28.9z M172.3,24.9c-0.8,0-1.4,0.6-1.4,1.4s0.6,1.4,1.4,1.4c0.8,0,1.4-0.6,1.4-1.4
		S173.1,24.9,172.3,24.9 M224.4,28.9l-4.1,0.4v0.9h1.9v8.5l-2,0.6v0.7h6.1v-0.7l-1.9-0.6V28.9z M222,26.3c0,0.8,0.6,1.4,1.4,1.4
		c0.8,0,1.4-0.6,1.4-1.4s-0.6-1.4-1.4-1.4C222.6,24.9,222,25.6,222,26.3 M203.8,15.3l0-2.4c0-1.8-2-1.9-2.8-1.9c-0.7,0-2,0-2.6,0.8
		c-0.3,0.4-0.2,1.2-0.2,1.5c0,0.7-0.5,1.3-1.2,1.3c-0.7,0-1.3-0.6-1.3-1.3c0-1.4,1.3-2.3,1.3-2.3c1-0.7,2.8-1,4.2-1
		c1.5,0,2.8,0.3,3.9,1.1c0.6,0.4,1,1.2,1,2.7V21l2.4,0.7l0.1,0.8h-3.5l-1.4-1.6c0,0-2.1,1.7-4.6,1.7c-2.6,0-3.8-1.4-3.8-2.7
		c0,0-0.4-2.7,3.4-3.8c0.7-0.2,1.4-0.3,1.9-0.4C202.7,15.3,203.8,15.3,203.8,15.3 M203.7,16.2c0,0-2.4,0.1-4.1,0.8
		c-1.2,0.5-1.9,1.5-1.9,2.6c0,0.7,0.8,1.8,2.5,1.7c1.7-0.1,3.4-1.6,3.4-1.6V16.2z M214.6,33c-1.7-0.3-3.1-0.8-3.1-1.9
		c0-1.4,1.7-1.5,2.4-1.5c3.2,0.1,4.1,2.8,4.1,2.8h0.7l-0.7-3.5h-0.6l-0.2,0.8c-0.6-0.4-1.7-1-3.1-1c-2.8,0-4.4,1.6-4.4,3.4
		c0,1.8,2.3,2.5,4,3c1.7,0.5,3.9,0.6,3.9,2.3c0,2-2.8,2-2.8,2c-3.8,0-4.7-3.4-4.7-3.4h-0.8l0.7,4.1h0.7l0.3-0.9c0,0,1.9,1.1,3.9,1.1
		c2.8,0,4.7-1.8,4.7-3.8C219.5,33.8,216.5,33.4,214.6,33 M161.5,15.3l0-2.4c0-1.8-2-1.9-2.8-1.9c-0.7,0-2,0-2.6,0.8
		c-0.3,0.4-0.2,1.2-0.2,1.5c0,0.7-0.5,1.3-1.2,1.3c-0.7,0-1.3-0.6-1.3-1.3c0-1.4,1.3-2.3,1.3-2.3c1-0.7,2.8-1,4.2-1
		c1.5,0,2.8,0.3,3.9,1.1c0.6,0.4,1,1.2,1,2.7V21l2.3,0.6v0.8h-3.3l-1.4-1.6c0,0-2.1,1.7-4.6,1.7c-2.6,0-3.8-1.4-3.8-2.7
		c0,0-0.4-2.7,3.4-3.8c0.7-0.2,1.4-0.3,1.9-0.4C160.4,15.3,161.5,15.3,161.5,15.3 M161.4,16.2c0,0-2.4,0.1-4.1,0.8
		c-1.2,0.5-1.9,1.5-1.9,2.6c0,0.7,0.8,1.8,2.5,1.7c1.7-0.1,3.4-1.6,3.4-1.6V16.2z"/>
	<path class="st2" d="M289.2,37.3c-0.9,0.3-2,0.4-3.6,0.4c-1.4,0-2.5-0.1-3.3-0.4c-0.6-0.2-1.2-0.4-1.7-0.6c-0.8-0.3-1.6-0.7-2.6-1
		c-1-0.3-2.2-0.5-3.9-0.5c-1.5,0-2.6,0.2-3.6,0.4c-0.7,0.2-1.3,0.4-1.9,0.6c-0.8,0.3-1.6,0.7-2.5,0.9c-0.9,0.3-2,0.4-3.6,0.4
		c-1.4,0-2.5-0.1-3.3-0.4c-0.6-0.1-1.1-0.3-1.6-0.5c0.2,0.4,0.4,0.9,0.6,1.3c0.1,0,0.3,0.1,0.4,0.1c1,0.3,2.2,0.5,3.9,0.5
		c1.5,0,2.6-0.2,3.6-0.4c0.7-0.2,1.3-0.4,1.9-0.6c0.8-0.3,1.6-0.7,2.5-0.9c0.9-0.3,2-0.4,3.6-0.4c1.4,0,2.5,0.1,3.3,0.4
		c0.6,0.2,1.2,0.4,1.7,0.6c0.8,0.3,1.6,0.7,2.6,1c1,0.3,2.2,0.5,3.9,0.5c1.5,0,2.6-0.2,3.6-0.4c0.3-0.1,0.5-0.1,0.8-0.2
		c0.2-0.4,0.4-0.9,0.6-1.3C290.1,37,289.6,37.1,289.2,37.3"/>
	<path class="st2" d="M285.5,35.7c-1.4,0-2.5-0.1-3.3-0.4c-0.6-0.2-1.2-0.4-1.7-0.6c-0.8-0.3-1.6-0.7-2.6-1c-1-0.3-2.2-0.5-3.9-0.5
		c-1.5,0-2.6,0.2-3.6,0.4c-0.7,0.2-1.3,0.4-1.9,0.6c-0.8,0.3-1.6,0.7-2.5,0.9c-0.9,0.3-2,0.4-3.6,0.4c-1.4,0-2.5-0.1-3.3-0.4
		c-0.6-0.2-1.2-0.4-1.7-0.6c-0.3-0.1-0.6-0.2-0.9-0.3c0.1,0.4,0.3,0.9,0.5,1.3c0.5,0.2,1,0.4,1.5,0.5c1,0.3,2.2,0.5,3.9,0.5
		c1.5,0,2.6-0.2,3.6-0.4c0.7-0.2,1.3-0.4,1.9-0.6c0.8-0.3,1.6-0.7,2.5-0.9c0.9-0.3,2-0.4,3.6-0.4c1.4,0,2.5,0.1,3.3,0.4
		c0.6,0.2,1.2,0.4,1.7,0.6c0.8,0.3,1.6,0.7,2.6,1c1,0.3,2.2,0.5,3.9,0.5c1.5,0,2.6-0.2,3.6-0.4c0.7-0.2,1.3-0.4,1.9-0.6
		c0.2-0.4,0.3-0.9,0.5-1.3c-0.7,0.3-1.4,0.6-2.3,0.8C288.2,35.5,287.1,35.7,285.5,35.7"/>
	<path class="st2" d="M256.1,33.4c0.7,0.3,1.4,0.6,2.3,0.9c1,0.3,2.2,0.5,3.9,0.5c1.5,0,2.6-0.2,3.6-0.4c0.7-0.2,1.3-0.4,1.9-0.6
		c0.8-0.3,1.6-0.7,2.5-0.9c0.9-0.3,2-0.4,3.6-0.4c1.4,0,2.5,0.1,3.3,0.4c0.6,0.2,1.2,0.4,1.7,0.6c0.8,0.3,1.6,0.7,2.6,1
		c1,0.3,2.2,0.5,3.9,0.5c1.5,0,2.6-0.2,3.6-0.4c0.7-0.2,1.3-0.4,1.9-0.6c0.3-0.1,0.5-0.2,0.8-0.3c0.1-0.4,0.3-0.8,0.4-1.2
		c-0.2,0.1-0.3,0.1-0.5,0.2c-0.8,0.3-1.6,0.7-2.5,0.9c-0.9,0.3-2,0.4-3.6,0.4c-1.4,0-2.5-0.1-3.3-0.4c-0.6-0.2-1.2-0.4-1.7-0.6
		c-0.8-0.3-1.6-0.7-2.6-1c-1-0.3-2.2-0.5-3.9-0.5c-1.5,0-2.6,0.2-3.6,0.4c-0.7,0.2-1.3,0.4-1.9,0.6c-0.8,0.3-1.6,0.7-2.5,0.9
		c-0.9,0.3-2,0.4-3.6,0.4c-1.4,0-2.5-0.1-3.3-0.4c-0.6-0.2-1.2-0.4-1.7-0.6c-0.5-0.2-1-0.4-1.6-0.6C255.9,32.6,256,33,256.1,33.4"/>
	<rect x="254.6" y="20.5" class="st2" width="38.7" height="0.5"/>
	<rect x="125.7" y="0" class="st3" width="0.6" height="45.4"/>
	<path class="st3" d="M33.5,37.2c0.5,0.6,1.2,1.2,1.9,1.6c0.7,0.4,1.6,0.6,2.7,0.6c0.6,0,1.2-0.1,1.7-0.2c0.5-0.1,0.9-0.3,1.3-0.6
		c0.4-0.3,0.7-0.6,0.9-1c0.2-0.4,0.3-0.9,0.3-1.4c0-0.6-0.1-1.1-0.3-1.5c-0.2-0.4-0.5-0.7-0.9-1c-0.4-0.3-0.8-0.5-1.3-0.7
		c-0.5-0.2-1-0.3-1.4-0.5c-0.6-0.2-1.2-0.3-1.8-0.5c-0.6-0.2-1.1-0.5-1.6-0.8c-0.5-0.3-0.8-0.7-1.1-1.2c-0.3-0.5-0.4-1.1-0.4-1.9
		c0-0.5,0.1-1,0.3-1.5c0.2-0.5,0.5-0.9,0.9-1.3c0.4-0.4,0.9-0.6,1.5-0.9c0.6-0.2,1.3-0.3,2-0.3c0.7,0,1.2,0.1,1.7,0.2
		c0.5,0.1,1,0.3,1.3,0.5c0.4,0.2,0.7,0.4,1,0.7c0.3,0.3,0.5,0.5,0.6,0.7L42,26.9c-0.1-0.2-0.3-0.4-0.5-0.6c-0.2-0.2-0.5-0.4-0.8-0.6
		c-0.3-0.2-0.7-0.3-1.1-0.4c-0.4-0.1-0.9-0.2-1.5-0.2c-0.6,0-1.2,0.1-1.6,0.3c-0.5,0.2-0.8,0.4-1.1,0.7c-0.3,0.3-0.5,0.6-0.7,0.9
		c-0.1,0.3-0.2,0.7-0.2,1.1c0,0.6,0.1,1,0.4,1.4c0.3,0.4,0.6,0.7,1,0.9c0.4,0.2,0.9,0.4,1.4,0.6c0.5,0.2,1,0.3,1.6,0.4
		c0.5,0.1,1.1,0.3,1.6,0.5c0.5,0.2,1,0.5,1.5,0.8c0.4,0.4,0.8,0.8,1.1,1.3c0.3,0.5,0.4,1.2,0.4,2c0,0.7-0.1,1.3-0.4,1.8
		c-0.3,0.5-0.7,1-1.1,1.4c-0.5,0.4-1,0.7-1.7,0.9c-0.7,0.2-1.4,0.3-2.1,0.3c-0.7,0-1.3-0.1-1.8-0.2c-0.6-0.1-1.1-0.3-1.5-0.5
		c-0.5-0.2-0.9-0.5-1.2-0.8c-0.4-0.3-0.6-0.6-0.9-0.9L33.5,37.2z"/>
	<path class="st3" d="M54.7,38.5c-0.5,0.5-1,1-1.8,1.3c-0.7,0.4-1.6,0.5-2.5,0.5c-0.8,0-1.5-0.1-2.2-0.4c-0.7-0.3-1.2-0.7-1.7-1.2
		c-0.5-0.5-0.9-1.1-1.1-1.8c-0.3-0.7-0.4-1.4-0.4-2.2c0-0.8,0.1-1.5,0.4-2.2c0.3-0.7,0.6-1.3,1.1-1.8c0.5-0.5,1.1-0.9,1.7-1.2
		c0.7-0.3,1.4-0.4,2.1-0.4c0.9,0,1.8,0.2,2.4,0.5c0.7,0.3,1.2,0.8,1.7,1.4l-0.8,0.6c-0.4-0.5-0.8-0.8-1.3-1.1
		c-0.5-0.3-1.2-0.4-2-0.4c-0.6,0-1.2,0.1-1.7,0.4c-0.5,0.2-1,0.6-1.4,1c-0.4,0.4-0.7,0.9-0.9,1.5c-0.2,0.6-0.3,1.2-0.3,1.8
		c0,0.6,0.1,1.2,0.3,1.8c0.2,0.6,0.5,1.1,0.9,1.5c0.4,0.4,0.8,0.8,1.4,1c0.5,0.2,1.1,0.4,1.7,0.4c0.8,0,1.5-0.1,2.1-0.4
		s1.1-0.7,1.4-1.1L54.7,38.5z"/>
	<path class="st3" d="M56.3,25.5h1.5v1.5h-1.5V25.5z M56.5,29.3h1.1v10.8h-1.1V29.3z"/>
	<path class="st3" d="M69.5,38.5c-0.5,0.6-1.1,1.1-1.9,1.4c-0.8,0.3-1.6,0.5-2.5,0.5c-0.8,0-1.5-0.1-2.2-0.4
		c-0.7-0.3-1.3-0.7-1.7-1.2c-0.5-0.5-0.9-1.1-1.1-1.8c-0.3-0.7-0.4-1.5-0.4-2.3c0-0.8,0.1-1.5,0.4-2.2c0.3-0.7,0.6-1.3,1.1-1.8
		c0.5-0.5,1-0.9,1.6-1.2c0.6-0.3,1.3-0.4,2.1-0.4c0.7,0,1.4,0.1,2,0.4c0.6,0.3,1.2,0.6,1.6,1.1c0.5,0.5,0.8,1.1,1.1,1.9
		C69.8,33.2,70,34,70,35h-9.2c0,0.6,0.1,1.2,0.4,1.7c0.2,0.5,0.5,1,0.9,1.4c0.4,0.4,0.8,0.7,1.3,0.9c0.5,0.2,1.1,0.3,1.7,0.3
		c0.3,0,0.7,0,1-0.1c0.4-0.1,0.7-0.2,1-0.3c0.3-0.1,0.6-0.3,0.9-0.5c0.3-0.2,0.5-0.4,0.7-0.6L69.5,38.5z M68.8,34.1
		c-0.1-1.3-0.6-2.3-1.3-3c-0.7-0.7-1.6-1-2.7-1c-0.6,0-1.1,0.1-1.6,0.3c-0.5,0.2-0.9,0.5-1.2,0.9c-0.3,0.4-0.6,0.8-0.8,1.3
		c-0.2,0.5-0.3,1-0.4,1.6H68.8z"/>
	<path class="st3" d="M72,31.6v-0.8v-0.6c0-0.2,0-0.3,0-0.5c0-0.1,0-0.3,0-0.5h1c0,0.2,0,0.3,0,0.5c0,0.1,0,0.3,0,0.5
		c0,0.2,0,0.4,0,0.6v0.8c0.1-0.2,0.3-0.5,0.5-0.8c0.2-0.3,0.5-0.6,0.8-0.8c0.3-0.3,0.7-0.5,1.2-0.6c0.5-0.2,1-0.3,1.6-0.3
		c0.8,0,1.4,0.1,1.9,0.3c0.5,0.2,0.9,0.5,1.3,0.9c0.3,0.4,0.6,0.9,0.7,1.5c0.1,0.6,0.2,1.2,0.2,2v6.3h-1.1v-6c0-0.8-0.1-1.5-0.2-2
		c-0.1-0.5-0.3-1-0.6-1.3c-0.3-0.3-0.6-0.5-1-0.7C78,30.1,77.5,30,77,30c-0.7,0-1.3,0.1-1.8,0.4c-0.5,0.3-0.9,0.6-1.2,1.1
		c-0.3,0.4-0.6,0.9-0.7,1.4C73.1,33.5,73,34,73,34.5v5.5H72V31.6z"/>
	<path class="st3" d="M92.8,38.5c-0.5,0.5-1,1-1.8,1.3c-0.7,0.4-1.6,0.5-2.5,0.5c-0.8,0-1.5-0.1-2.2-0.4c-0.7-0.3-1.2-0.7-1.7-1.2
		c-0.5-0.5-0.9-1.1-1.1-1.8c-0.3-0.7-0.4-1.4-0.4-2.2c0-0.8,0.1-1.5,0.4-2.2c0.3-0.7,0.6-1.3,1.1-1.8c0.5-0.5,1.1-0.9,1.7-1.2
		c0.7-0.3,1.4-0.4,2.1-0.4c0.9,0,1.8,0.2,2.4,0.5c0.7,0.3,1.2,0.8,1.7,1.4l-0.8,0.6c-0.4-0.5-0.8-0.8-1.3-1.1
		c-0.5-0.3-1.2-0.4-2-0.4c-0.6,0-1.2,0.1-1.7,0.4c-0.5,0.2-1,0.6-1.4,1c-0.4,0.4-0.7,0.9-0.9,1.5c-0.2,0.6-0.3,1.2-0.3,1.8
		c0,0.6,0.1,1.2,0.3,1.8c0.2,0.6,0.5,1.1,0.9,1.5c0.4,0.4,0.8,0.8,1.4,1c0.5,0.2,1.1,0.4,1.7,0.4c0.8,0,1.5-0.1,2.1-0.4
		c0.6-0.3,1.1-0.7,1.4-1.1L92.8,38.5z"/>
	<path class="st3" d="M103.9,38.5c-0.5,0.6-1.1,1.1-1.9,1.4c-0.8,0.3-1.6,0.5-2.5,0.5c-0.8,0-1.5-0.1-2.2-0.4
		c-0.7-0.3-1.3-0.7-1.7-1.2c-0.5-0.5-0.9-1.1-1.1-1.8c-0.3-0.7-0.4-1.5-0.4-2.3c0-0.8,0.1-1.5,0.4-2.2c0.3-0.7,0.6-1.3,1.1-1.8
		c0.5-0.5,1-0.9,1.6-1.2c0.6-0.3,1.3-0.4,2.1-0.4c0.7,0,1.4,0.1,2,0.4c0.6,0.3,1.2,0.6,1.6,1.1c0.5,0.5,0.8,1.1,1.1,1.9
		c0.3,0.7,0.4,1.6,0.4,2.6h-9.2c0,0.6,0.1,1.2,0.4,1.7c0.2,0.5,0.5,1,0.9,1.4c0.4,0.4,0.8,0.7,1.3,0.9c0.5,0.2,1.1,0.3,1.7,0.3
		c0.3,0,0.7,0,1-0.1c0.4-0.1,0.7-0.2,1-0.3c0.3-0.1,0.6-0.3,0.9-0.5c0.3-0.2,0.5-0.4,0.7-0.6L103.9,38.5z M103.2,34.1
		c-0.1-1.3-0.6-2.3-1.3-3c-0.7-0.7-1.6-1-2.7-1c-0.6,0-1.1,0.1-1.6,0.3c-0.5,0.2-0.9,0.5-1.2,0.9c-0.3,0.4-0.6,0.8-0.8,1.3
		c-0.2,0.5-0.3,1-0.4,1.6H103.2z"/>
	<path class="st3" d="M106.4,38c0.5,0.5,1,0.8,1.6,1c0.6,0.2,1.3,0.4,2.1,0.4c0.4,0,0.8,0,1.2-0.1c0.4-0.1,0.7-0.2,1-0.4
		c0.3-0.2,0.5-0.4,0.7-0.6c0.2-0.2,0.3-0.5,0.3-0.9c0-0.4-0.1-0.7-0.2-1c-0.2-0.2-0.4-0.5-0.7-0.6c-0.3-0.2-0.7-0.3-1.1-0.4
		c-0.5-0.1-1-0.2-1.6-0.4c-0.5-0.1-1-0.2-1.4-0.4c-0.4-0.1-0.8-0.3-1.1-0.5c-0.3-0.2-0.5-0.5-0.7-0.8c-0.2-0.3-0.3-0.8-0.3-1.3
		c0-0.5,0.1-0.9,0.3-1.3c0.2-0.4,0.5-0.7,0.9-0.9c0.4-0.2,0.8-0.4,1.3-0.5c0.5-0.1,1-0.2,1.5-0.2c0.8,0,1.6,0.2,2.2,0.5
		c0.6,0.3,1.2,0.7,1.6,1.2l-0.7,0.7c-0.4-0.4-0.8-0.7-1.3-1c-0.5-0.2-1.1-0.4-1.8-0.4c-0.3,0-0.7,0-1,0.1c-0.3,0.1-0.7,0.2-0.9,0.3
		c-0.3,0.1-0.5,0.4-0.7,0.6c-0.2,0.3-0.3,0.6-0.3,1c0,0.3,0.1,0.6,0.3,0.9c0.2,0.2,0.4,0.4,0.8,0.6c0.3,0.2,0.7,0.3,1.1,0.4
		c0.4,0.1,0.8,0.2,1.2,0.3c0.4,0.1,0.9,0.2,1.3,0.4c0.4,0.1,0.8,0.3,1.2,0.5c0.4,0.2,0.7,0.5,0.9,0.9c0.2,0.4,0.3,0.8,0.3,1.3
		c0,0.5-0.1,1-0.4,1.4c-0.2,0.4-0.6,0.7-1,1c-0.4,0.3-0.9,0.4-1.4,0.6c-0.5,0.1-1,0.2-1.5,0.2c-1,0-1.9-0.1-2.6-0.4
		c-0.7-0.3-1.3-0.7-1.8-1.2L106.4,38z"/>
	<path class="st3" d="M6.4,6.8h1.1l6.4,15.6h-1.3l-2-5H3.2l-2,5H0L6.4,6.8z M10.1,16.3L6.9,8.2l-3.2,8.1H10.1z"/>
	<path class="st3" d="M15.1,13.9v-0.8v-0.6c0-0.2,0-0.3,0-0.5s0-0.3,0-0.5h1c0,0.2,0,0.3,0,0.5c0,0.2,0,0.3,0,0.5c0,0.2,0,0.4,0,0.6
		V14c0.1-0.2,0.3-0.5,0.5-0.8c0.2-0.3,0.5-0.6,0.8-0.8c0.3-0.2,0.7-0.5,1.1-0.6c0.4-0.2,0.9-0.3,1.5-0.3c0.3,0,0.6,0.1,0.9,0.2
		l-0.3,1c-0.1,0-0.2-0.1-0.4-0.1c-0.1,0-0.3,0-0.4,0c-0.6,0-1.1,0.1-1.5,0.4c-0.5,0.2-0.8,0.6-1.2,1c-0.3,0.4-0.6,0.9-0.8,1.4
		c-0.2,0.5-0.3,1-0.3,1.6v5.5h-1.1V13.9z"/>
	<path class="st3" d="M23.9,12.6h-2.2v-1h2.2V8.1h1.1v3.6h3.6v1h-3.6v6.2c0,0.6,0,1.1,0.1,1.5c0.1,0.4,0.2,0.7,0.4,0.9
		c0.2,0.2,0.4,0.3,0.6,0.4c0.2,0.1,0.5,0.1,0.8,0.1c0.4,0,0.7-0.1,1-0.2c0.3-0.1,0.6-0.4,0.8-0.7l0.7,0.6c-0.3,0.4-0.7,0.7-1.1,0.9
		c-0.4,0.2-0.9,0.3-1.6,0.3c-0.4,0-0.8-0.1-1.2-0.2c-0.4-0.1-0.7-0.3-0.9-0.6c-0.3-0.3-0.4-0.6-0.6-1.1c-0.1-0.5-0.2-1-0.2-1.8V12.6
		z"/>
	<path class="st3" d="M30.5,20.3c0.5,0.5,1,0.8,1.6,1c0.6,0.2,1.3,0.4,2.1,0.4c0.4,0,0.8,0,1.2-0.1c0.4-0.1,0.7-0.2,1-0.4
		c0.3-0.2,0.5-0.4,0.7-0.6c0.2-0.2,0.3-0.5,0.3-0.9c0-0.4-0.1-0.7-0.2-1c-0.2-0.3-0.4-0.5-0.7-0.6c-0.3-0.2-0.7-0.3-1.1-0.4
		c-0.5-0.1-1-0.2-1.6-0.4c-0.5-0.1-1-0.2-1.4-0.4c-0.4-0.1-0.8-0.3-1.1-0.6c-0.3-0.2-0.5-0.5-0.7-0.8c-0.2-0.3-0.3-0.8-0.3-1.3
		c0-0.5,0.1-0.9,0.3-1.3s0.5-0.7,0.9-0.9c0.4-0.2,0.8-0.4,1.3-0.5c0.5-0.1,1-0.2,1.5-0.2c0.8,0,1.6,0.2,2.2,0.5
		c0.6,0.3,1.2,0.7,1.6,1.2l-0.7,0.7c-0.4-0.4-0.8-0.7-1.3-1c-0.5-0.3-1.1-0.4-1.8-0.4c-0.3,0-0.7,0-1,0.1c-0.3,0.1-0.7,0.2-0.9,0.3
		c-0.3,0.1-0.5,0.4-0.7,0.6c-0.2,0.3-0.3,0.6-0.3,1c0,0.3,0.1,0.6,0.3,0.9c0.2,0.2,0.4,0.4,0.8,0.6c0.3,0.2,0.7,0.3,1.1,0.4
		c0.4,0.1,0.8,0.2,1.2,0.3c0.4,0.1,0.9,0.2,1.3,0.4c0.4,0.1,0.8,0.3,1.2,0.6c0.4,0.2,0.7,0.5,0.9,0.9c0.2,0.4,0.3,0.8,0.3,1.3
		c0,0.5-0.1,1-0.4,1.4c-0.3,0.4-0.6,0.7-1,1c-0.4,0.3-0.9,0.4-1.4,0.6c-0.5,0.1-1,0.2-1.5,0.2c-1,0-1.9-0.1-2.6-0.4
		c-0.7-0.3-1.3-0.7-1.8-1.2L30.5,20.3z"/>
	<path class="st3" d="M53.3,20.2c-0.3,0.3-0.6,0.7-0.9,1c-0.3,0.3-0.7,0.6-1.1,0.8c-0.4,0.2-0.8,0.4-1.3,0.6c-0.5,0.1-1,0.2-1.5,0.2
		c-0.7,0-1.4-0.1-1.9-0.3c-0.6-0.2-1.1-0.5-1.4-0.9c-0.4-0.4-0.7-0.8-0.9-1.3c-0.2-0.5-0.3-1-0.3-1.6c0-1.1,0.3-2.1,1-2.9
		c0.6-0.8,1.5-1.5,2.5-2.1l-0.7-0.8c-0.3-0.4-0.6-0.9-0.9-1.4c-0.2-0.5-0.3-1.1-0.3-1.7c0-0.4,0.1-0.8,0.2-1.2
		c0.2-0.4,0.4-0.8,0.7-1.1c0.3-0.3,0.7-0.6,1.1-0.7c0.5-0.2,1-0.3,1.6-0.3c0.9,0,1.7,0.2,2.3,0.6c0.6,0.4,1,1,1.4,1.9l-0.8,0.5
		c-0.4-0.8-0.8-1.3-1.3-1.6c-0.5-0.3-1-0.4-1.6-0.4c-0.4,0-0.8,0.1-1.1,0.2c-0.3,0.1-0.6,0.3-0.8,0.5c-0.2,0.2-0.4,0.5-0.5,0.7
		c-0.1,0.3-0.2,0.6-0.2,0.8c0,0.5,0.1,1,0.4,1.5c0.3,0.5,0.7,1.1,1.2,1.7l5.1,5.7l2.1-2.8l0.8,0.6l-2.2,3l2.7,3h-1.4L53.3,20.2z
		 M47.9,14.4c-1,0.6-1.7,1.2-2.2,1.8c-0.5,0.6-0.7,1.4-0.7,2.4c0,0.4,0.1,0.8,0.2,1.2c0.2,0.4,0.4,0.7,0.7,1
		c0.3,0.3,0.7,0.5,1.1,0.7c0.4,0.2,0.9,0.2,1.5,0.2c0.5,0,0.9-0.1,1.3-0.2c0.4-0.1,0.8-0.3,1.1-0.5c0.3-0.2,0.6-0.5,0.9-0.7
		c0.3-0.3,0.5-0.6,0.8-0.9L47.9,14.4z"/>
	<path class="st3" d="M62,19.5c0.5,0.6,1.2,1.2,1.9,1.6c0.7,0.4,1.6,0.6,2.7,0.6c0.6,0,1.2-0.1,1.7-0.2c0.5-0.1,0.9-0.3,1.3-0.6
		c0.4-0.3,0.6-0.6,0.9-1c0.2-0.4,0.3-0.9,0.3-1.4c0-0.6-0.1-1.1-0.3-1.5c-0.2-0.4-0.5-0.7-0.9-1c-0.4-0.3-0.8-0.5-1.3-0.7
		c-0.5-0.2-1-0.3-1.4-0.5c-0.6-0.2-1.2-0.3-1.8-0.5c-0.6-0.2-1.1-0.5-1.6-0.8c-0.5-0.3-0.8-0.7-1.1-1.2s-0.4-1.1-0.4-1.9
		c0-0.5,0.1-1,0.3-1.5c0.2-0.5,0.5-0.9,0.9-1.3c0.4-0.4,0.9-0.6,1.5-0.9c0.6-0.2,1.3-0.3,2-0.3c0.7,0,1.2,0.1,1.7,0.2
		c0.5,0.1,0.9,0.3,1.3,0.5c0.4,0.2,0.7,0.4,1,0.7c0.3,0.2,0.5,0.5,0.6,0.7l-0.8,0.7c-0.1-0.2-0.3-0.4-0.5-0.6
		c-0.2-0.2-0.5-0.4-0.8-0.6c-0.3-0.2-0.7-0.3-1.1-0.4c-0.4-0.1-0.9-0.2-1.5-0.2c-0.6,0-1.2,0.1-1.6,0.3c-0.5,0.2-0.8,0.4-1.1,0.7
		c-0.3,0.3-0.5,0.6-0.7,0.9C63.1,9.7,63,10,63,10.4c0,0.6,0.1,1,0.4,1.4c0.3,0.4,0.6,0.7,1,0.9c0.4,0.2,0.9,0.4,1.4,0.6
		c0.5,0.2,1,0.3,1.6,0.4c0.5,0.1,1.1,0.3,1.6,0.5c0.5,0.2,1,0.5,1.5,0.8c0.4,0.4,0.8,0.8,1.1,1.3c0.3,0.5,0.4,1.2,0.4,2
		c0,0.7-0.1,1.3-0.4,1.8c-0.3,0.5-0.7,1-1.1,1.4c-0.5,0.4-1,0.7-1.7,0.9c-0.7,0.2-1.4,0.3-2.1,0.3c-0.7,0-1.3-0.1-1.8-0.2
		c-0.6-0.1-1.1-0.3-1.5-0.5c-0.5-0.2-0.9-0.5-1.2-0.8c-0.4-0.3-0.6-0.6-0.9-0.9L62,19.5z"/>
	<path class="st3" d="M79.2,22.7c-0.8,0-1.5-0.1-2.2-0.4c-0.7-0.3-1.3-0.7-1.8-1.2c-0.5-0.5-0.9-1.1-1.2-1.8
		c-0.3-0.7-0.4-1.4-0.4-2.2c0-0.8,0.1-1.5,0.4-2.2c0.3-0.7,0.7-1.3,1.2-1.8c0.5-0.5,1.1-0.9,1.8-1.2c0.7-0.3,1.4-0.4,2.2-0.4
		c0.8,0,1.5,0.1,2.1,0.4c0.7,0.3,1.3,0.7,1.8,1.2c0.5,0.5,0.9,1.1,1.2,1.8c0.3,0.7,0.4,1.4,0.4,2.2c0,0.8-0.1,1.5-0.4,2.2
		c-0.3,0.7-0.7,1.3-1.2,1.8c-0.5,0.5-1.1,0.9-1.8,1.2C80.7,22.5,79.9,22.7,79.2,22.7 M79.2,21.7c0.6,0,1.2-0.1,1.8-0.4
		c0.5-0.2,1-0.6,1.4-1c0.4-0.4,0.7-0.9,0.9-1.5c0.2-0.6,0.3-1.2,0.3-1.8c0-0.6-0.1-1.2-0.4-1.8c-0.2-0.6-0.5-1.1-0.9-1.5
		c-0.4-0.4-0.9-0.8-1.4-1c-0.5-0.2-1.1-0.4-1.7-0.4c-0.6,0-1.2,0.1-1.8,0.4c-0.5,0.2-1,0.6-1.4,1c-0.4,0.4-0.7,0.9-0.9,1.5
		c-0.2,0.6-0.3,1.2-0.3,1.8c0,0.6,0.1,1.2,0.4,1.8c0.2,0.6,0.5,1.1,0.9,1.5s0.9,0.8,1.4,1C78,21.6,78.6,21.7,79.2,21.7"/>
	<path class="st3" d="M95.8,20.8c-0.5,0.5-1,1-1.8,1.3c-0.7,0.4-1.6,0.5-2.5,0.5c-0.8,0-1.5-0.1-2.2-0.4c-0.7-0.3-1.2-0.7-1.7-1.2
		c-0.5-0.5-0.9-1.1-1.1-1.8c-0.3-0.7-0.4-1.4-0.4-2.2c0-0.8,0.1-1.5,0.4-2.2c0.3-0.7,0.6-1.3,1.1-1.8c0.5-0.5,1.1-0.9,1.7-1.2
		c0.7-0.3,1.4-0.4,2.1-0.4c1,0,1.8,0.2,2.4,0.5c0.7,0.3,1.2,0.8,1.7,1.4l-0.8,0.6c-0.4-0.5-0.8-0.8-1.3-1.1c-0.5-0.3-1.2-0.4-2-0.4
		c-0.6,0-1.2,0.1-1.7,0.4c-0.5,0.2-1,0.6-1.4,1c-0.4,0.4-0.7,0.9-0.9,1.5c-0.2,0.6-0.3,1.2-0.3,1.8c0,0.6,0.1,1.2,0.3,1.8
		c0.2,0.6,0.5,1.1,0.9,1.5c0.4,0.4,0.8,0.8,1.4,1c0.5,0.3,1.1,0.4,1.7,0.4c0.8,0,1.5-0.1,2.1-0.4c0.6-0.3,1.1-0.7,1.4-1.1L95.8,20.8
		z"/>
	<path class="st3" d="M97.4,7.8h1.5v1.5h-1.5V7.8z M97.6,11.6h1.1v10.7h-1.1V11.6z"/>
	<path class="st3" d="M108.6,22.4c0-0.1,0-0.3,0-0.5c0-0.2,0-0.3,0-0.6v-0.8c-0.3,0.4-0.6,0.7-0.9,1c-0.3,0.3-0.7,0.5-1.1,0.6
		c-0.4,0.2-0.7,0.3-1.1,0.3c-0.4,0.1-0.7,0.1-1,0.1c-0.5,0-0.9,0-1.4-0.1c-0.5-0.1-0.9-0.3-1.2-0.5c-0.4-0.2-0.7-0.6-0.9-1
		c-0.2-0.4-0.3-0.9-0.3-1.6c0-0.5,0.1-1,0.3-1.5c0.2-0.5,0.4-0.9,0.8-1.2c0.4-0.3,0.9-0.6,1.4-0.8c0.6-0.2,1.3-0.3,2.1-0.3
		c0.7,0,1.2,0,1.8,0.1c0.5,0,1,0.1,1.3,0.2v-0.6c0-0.6-0.1-1.1-0.2-1.5c-0.1-0.4-0.4-0.7-0.6-0.9c-0.3-0.2-0.6-0.4-1-0.5
		c-0.4-0.1-0.9-0.1-1.4-0.1c-0.9,0-1.6,0.1-2.1,0.4c-0.5,0.3-0.9,0.5-1.2,0.7l-0.6-0.7c0.3-0.3,0.8-0.6,1.4-0.9s1.5-0.5,2.4-0.5
		c1.4,0,2.5,0.3,3.2,0.9c0.8,0.6,1.1,1.6,1.1,2.9v5V21c0,0.3,0,0.5,0,0.7c0,0.2,0,0.5,0,0.7H108.6z M108.5,16.9
		c-0.3-0.1-0.7-0.1-1.2-0.2c-0.5-0.1-1.1-0.1-1.9-0.1c-0.8,0-1.4,0.1-1.9,0.3c-0.5,0.2-0.8,0.4-1.1,0.7c-0.2,0.3-0.4,0.6-0.5,0.9
		c-0.1,0.3-0.1,0.6-0.1,0.9c0,0.8,0.3,1.3,0.8,1.7c0.5,0.4,1.2,0.5,2,0.5c0.5,0,1-0.1,1.5-0.3c0.5-0.2,0.9-0.4,1.2-0.7
		c0.4-0.3,0.6-0.7,0.8-1.1c0.2-0.4,0.3-0.8,0.3-1.2V16.9z"/>
	<rect x="112" y="6.8" class="st3" width="1.1" height="15.6"/>
</g>
</svg>
